<svg width="78" height="76" viewBox="0 0 78 76" fill="none" xmlns="http://www.w3.org/2000/svg">
<rect width="78" height="76" rx="16" fill="white"/>
<rect x="0.5" y="0.5" width="77" height="75" rx="15.5" stroke="black" stroke-opacity="0.15"/>
<path d="M48.0001 30.74C47.9101 30.725 47.8051 30.725 47.7151 30.74C45.6451 30.665 43.9951 28.97 43.9951 26.87C43.9951 24.725 45.7201 23 47.8651 23C50.0101 23 51.7351 24.74 51.7351 26.87C51.7201 28.97 50.0701 30.665 48.0001 30.74Z" stroke="#F97316" stroke-width="1.5" stroke-linecap="round" stroke-linejoin="round"/>
<path d="M46.4552 41.66C48.5102 42.005 50.7752 41.645 52.3652 40.58C54.4802 39.17 54.4802 36.86 52.3652 35.45C50.7602 34.385 48.4652 34.025 46.4102 34.385" stroke="#F97316" stroke-width="1.5" stroke-linecap="round" stroke-linejoin="round"/>
<path d="M29.9547 30.74C30.0447 30.725 30.1497 30.725 30.2397 30.74C32.3097 30.665 33.9597 28.97 33.9597 26.87C33.9597 24.725 32.2347 23 30.0897 23C27.9447 23 26.2197 24.74 26.2197 26.87C26.2347 28.97 27.8847 30.665 29.9547 30.74Z" stroke="#F97316" stroke-width="1.5" stroke-linecap="round" stroke-linejoin="round"/>
<path d="M31.5002 41.66C29.4452 42.005 27.1802 41.645 25.5902 40.58C23.4752 39.17 23.4752 36.86 25.5902 35.45C27.1952 34.385 29.4902 34.025 31.5452 34.385" stroke="#F97316" stroke-width="1.5" stroke-linecap="round" stroke-linejoin="round"/>
<path d="M39.0001 41.945C38.9101 41.93 38.8051 41.93 38.7151 41.945C36.6451 41.87 34.9951 40.175 34.9951 38.075C34.9951 35.93 36.7201 34.205 38.8651 34.205C41.0101 34.205 42.7351 35.945 42.7351 38.075C42.7201 40.175 41.0701 41.885 39.0001 41.945Z" stroke="#F97316" stroke-width="1.5" stroke-linecap="round" stroke-linejoin="round"/>
<path d="M34.6351 46.67C32.5201 48.08 32.5201 50.39 34.6351 51.8C37.0351 53.405 40.9651 53.405 43.3651 51.8C45.4801 50.39 45.4801 48.08 43.3651 46.67C40.9801 45.08 37.0351 45.08 34.6351 46.67Z" stroke="#F97316" stroke-width="1.5" stroke-linecap="round" stroke-linejoin="round"/>
</svg>
