<svg width="78" height="76" viewBox="0 0 78 76" fill="none" xmlns="http://www.w3.org/2000/svg">
<rect width="78" height="76" rx="16" fill="white"/>
<rect x="0.5" y="0.5" width="77" height="75" rx="15.5" stroke="black" stroke-opacity="0.15"/>
<path d="M53.4903 35.66L52.0203 41.93C50.7603 47.345 48.2703 49.535 43.5903 49.085C42.8403 49.025 42.0303 48.89 41.1603 48.68L38.6403 48.08C32.3853 46.595 30.4503 43.505 31.9203 37.235L33.3903 30.95C33.6903 29.675 34.0503 28.565 34.5003 27.65C36.2553 24.02 39.2403 23.045 44.2503 24.23L46.7553 24.815C53.0403 26.285 54.9603 29.39 53.4903 35.66Z" stroke="#F97316" stroke-width="1.5" stroke-linecap="round" stroke-linejoin="round"/>
<path d="M43.5895 49.085C42.6595 49.715 41.4895 50.24 40.0645 50.705L37.6945 51.485C31.7395 53.405 28.6045 51.8 26.6695 45.845L24.7495 39.92C22.8295 33.965 24.4195 30.815 30.3745 28.895L32.7445 28.115C33.3595 27.92 33.9445 27.755 34.4995 27.65C34.0495 28.565 33.6895 29.675 33.3895 30.95L31.9195 37.235C30.4495 43.505 32.3845 46.595 38.6395 48.08L41.1595 48.68C42.0295 48.89 42.8395 49.025 43.5895 49.085Z" stroke="#F97316" stroke-width="1.5" stroke-linecap="round" stroke-linejoin="round"/>
<path d="M39.96 32.795L47.235 34.64" stroke="#F97316" stroke-width="1.5" stroke-linecap="round" stroke-linejoin="round"/>
<path d="M38.4902 38.6L42.8402 39.71" stroke="#F97316" stroke-width="1.5" stroke-linecap="round" stroke-linejoin="round"/>
</svg>
