<svg width="57" height="57" viewBox="0 0 57 57" fill="none" xmlns="http://www.w3.org/2000/svg">
<path d="M21.6072 33.112C21.1406 33.112 20.7066 33.056 20.3052 32.944C19.9039 32.8227 19.5446 32.6407 19.2272 32.398C18.9192 32.1553 18.6579 31.8473 18.4432 31.474C18.2379 31.1007 18.0979 30.6573 18.0232 30.144H19.9972C20.0532 30.3307 20.1559 30.508 20.3052 30.676C20.4546 30.844 20.6412 30.9793 20.8652 31.082C21.0986 31.1847 21.3599 31.236 21.6492 31.236C22.0039 31.236 22.3026 31.1753 22.5452 31.054C22.7879 30.9233 22.9746 30.746 23.1052 30.522C23.2359 30.298 23.3012 30.032 23.3012 29.724C23.3012 29.2573 23.1519 28.884 22.8532 28.604C22.5639 28.3147 22.1532 28.17 21.6212 28.17C21.3132 28.17 21.0239 28.226 20.7532 28.338C20.4919 28.4407 20.2399 28.5853 19.9972 28.772H18.2892L18.4712 23.088H24.9952V24.922H20.3612L20.2492 26.938C20.5292 26.742 20.8512 26.6067 21.2152 26.532C21.5886 26.448 21.9572 26.4107 22.3212 26.42C22.9652 26.4387 23.5112 26.5787 23.9592 26.84C24.4072 27.1013 24.7479 27.4653 24.9812 27.932C25.2239 28.3987 25.3452 28.9447 25.3452 29.57C25.3452 30.326 25.1772 30.97 24.8412 31.502C24.5146 32.034 24.0666 32.4353 23.4972 32.706C22.9372 32.9767 22.3072 33.112 21.6072 33.112ZM26.4825 35.352L30.8085 21.786H32.0685L27.7425 35.352H26.4825ZM34.0084 33L38.0124 24.222H32.7764V23.102H39.3564V24.11L35.3524 33H34.0084Z" fill="#1E1E1E"/>
<path d="M57 28.1562C57 43.7065 44.394 56.3125 28.8438 56.3125C13.2935 56.3125 0.6875 43.7065 0.6875 28.1562C0.6875 12.606 13.2935 0 28.8438 0C44.394 0 57 12.606 57 28.1562ZM4.55702 28.1562C4.55702 41.5694 15.4306 52.443 28.8438 52.443C42.2569 52.443 53.1305 41.5694 53.1305 28.1562C53.1305 14.7431 42.2569 3.86952 28.8438 3.86952C15.4306 3.86952 4.55702 14.7431 4.55702 28.1562Z" fill="#D9D9D9"/>
<path d="M55.0652 28.1562C56.1338 28.1562 57.0069 29.0236 56.9336 30.0896C56.5805 35.2201 54.8275 40.1697 51.848 44.3914C48.4956 49.1414 43.7551 52.7373 38.2773 54.6852C32.7995 56.633 26.853 56.8375 21.2543 55.2704C15.6557 53.7033 10.6794 50.4415 7.00877 45.9329C3.33817 41.4243 1.15323 35.89 0.753972 30.0898C0.354714 24.2897 1.76072 18.5082 4.77892 13.5392C7.79712 8.57017 12.2795 4.65728 17.6106 2.33781C22.3489 0.276295 27.5511 -0.43666 32.6466 0.257975C33.7053 0.402305 34.3776 1.43318 34.1609 2.47952C33.9442 3.52586 32.9206 4.1903 31.8604 4.05757C27.5495 3.51791 23.1598 4.14338 19.1544 5.88604C14.5559 7.88674 10.6896 11.2619 8.08615 15.548C5.48274 19.8341 4.26997 24.8211 4.61435 29.8241C4.95874 34.8271 6.8434 39.6008 10.0096 43.4898C13.1757 47.3788 17.4681 50.1923 22.2973 51.5441C27.1266 52.8958 32.2558 52.7195 36.9808 51.0393C41.7058 49.3591 45.7949 46.2574 48.6865 42.1602C51.2052 38.5914 52.7078 34.4197 53.0535 30.089C53.1385 29.0239 53.9967 28.1562 55.0652 28.1562Z" fill="#34D399"/>
</svg>
