<svg width="37" height="41" viewBox="0 0 37 41" fill="none" xmlns="http://www.w3.org/2000/svg">
<path d="M8.19119 24.4353C2.80879 26.1294 0.66212 29.1704 1.04268 33.7529C1.52019 39.5029 8.34945 40.5294 14.0782 40.5294C21.2235 40.5294 31.4541 39.1162 35.1032 30.7882C37.9077 24.388 36.3615 13 33.0007 13C29.64 13 29.2162 16.7271 24.1702 19.7765C17.8627 23.5882 14.9192 22.3176 8.19119 24.4353Z" fill="#FED7AA"/>
<path d="M18.9914 3.7772L18.9464 3.8822L14.5964 13.9772H10.3214C9.30141 13.9772 8.32641 14.1872 7.44141 14.5622L10.0664 8.2922L10.1264 8.1422L10.2314 7.9022C10.2614 7.8122 10.2914 7.7222 10.3364 7.6472C12.3014 3.1022 14.5214 2.0672 18.9914 3.7772Z" stroke="#292D32" stroke-width="2.25" stroke-linecap="round" stroke-linejoin="round"/>
<path d="M27.0757 14.2773C26.4007 14.0673 25.6807 13.9773 24.9607 13.9773H14.5957L18.9457 3.88228L18.9907 3.77728C19.2157 3.85228 19.4257 3.95728 19.6507 4.04728L22.9657 5.44228C24.8107 6.20728 26.1007 7.00228 26.8807 7.96228C27.0307 8.14228 27.1507 8.30728 27.2557 8.50228C27.3907 8.71228 27.4957 8.92228 27.5557 9.14728C27.6157 9.28228 27.6607 9.41728 27.6907 9.53728C28.0957 10.7973 27.8557 12.3423 27.0757 14.2773Z" stroke="#292D32" stroke-width="2.25" stroke-linecap="round" stroke-linejoin="round"/>
<path d="M32.2826 21.2975V24.2225C32.2826 24.5225 32.2676 24.8225 32.2526 25.1225C31.9676 30.3575 29.0426 32.9975 23.4926 32.9975H11.7926C11.4326 32.9975 11.0726 32.9675 10.7276 32.9225C5.95758 32.6075 3.40758 30.0575 3.09258 25.2875C3.04758 24.9425 3.01758 24.5825 3.01758 24.2225V21.2975C3.01758 18.2825 4.84758 15.6875 7.45758 14.5625C8.35758 14.1875 9.31758 13.9775 10.3376 13.9775H24.9776C25.7126 13.9775 26.4326 14.0825 27.0926 14.2775C30.0776 15.1925 32.2826 17.9825 32.2826 21.2975Z" stroke="#292D32" stroke-width="2.25" stroke-linecap="round" stroke-linejoin="round"/>
<path d="M10.065 8.29211L7.44 14.5621C4.83 15.6871 3 18.2821 3 21.2971V16.9021C3 12.6421 6.03 9.08711 10.065 8.29211Z" stroke="#292D32" stroke-width="2.25" stroke-linecap="round" stroke-linejoin="round"/>
<path d="M32.2779 16.9015V21.2965C32.2779 17.9965 30.0879 15.1915 27.0879 14.2915C27.8679 12.3415 28.0929 10.8115 27.7179 9.53648C27.6879 9.40148 27.6429 9.26648 27.5829 9.14648C30.3729 10.5865 32.2779 13.5415 32.2779 16.9015Z" stroke="#292D32" stroke-width="2.25" stroke-linecap="round" stroke-linejoin="round"/>
</svg>
