<svg width="230" height="160" viewBox="0 0 230 160" fill="none" xmlns="http://www.w3.org/2000/svg">
<path d="M230 150.904H0V151.019H230V150.904Z" fill="#EBEBEB"/>
<path d="M204.19 155.283H188.955V155.398H204.19V155.283Z" fill="#EBEBEB"/>
<path d="M83.4122 156.843H60.4766V156.958H83.4122V156.843Z" fill="#EBEBEB"/>
<path d="M188.494 159.557H174.91V159.672H188.494V159.557Z" fill="#EBEBEB"/>
<path d="M34.0669 158.784H24.1309V158.899H34.0669V158.784Z" fill="#EBEBEB"/>
<path d="M55.8104 158.784H38.1602V158.899H55.8104V158.784Z" fill="#EBEBEB"/>
<path d="M152.36 154.037H109.268V154.152H152.36V154.037Z" fill="#EBEBEB"/>
<path d="M109.02 130.388H20.1982C19.5024 130.387 18.8354 130.11 18.3439 129.617C17.8523 129.125 17.5762 128.457 17.5762 127.761V2.90359C17.5822 2.21176 17.861 1.55026 18.3519 1.06277C18.8429 0.575279 19.5063 0.301173 20.1982 0.299988H109.02C109.716 0.299988 110.384 0.576718 110.877 1.0693C111.369 1.56188 111.646 2.22997 111.646 2.92659V127.761C111.646 128.458 111.369 129.126 110.877 129.619C110.384 130.111 109.716 130.388 109.02 130.388ZM20.1982 0.391988C19.5329 0.393207 18.8952 0.658358 18.4252 1.12924C17.9552 1.60013 17.6912 2.23827 17.6912 2.90359V127.761C17.6912 128.427 17.9552 129.065 18.4252 129.536C18.8952 130.007 19.5329 130.272 20.1982 130.273H109.02C109.685 130.272 110.323 130.007 110.794 129.536C111.265 129.065 111.53 128.427 111.531 127.761V2.90359C111.53 2.23784 111.265 1.59971 110.794 1.12896C110.323 0.658208 109.685 0.393204 109.02 0.391988H20.1982Z" fill="#EBEBEB"/>
<path d="M208.523 130.388H119.697C119.001 130.387 118.333 130.11 117.841 129.617C117.349 129.125 117.072 128.458 117.07 127.761V2.90359C117.078 2.21134 117.357 1.54984 117.849 1.06248C118.341 0.575118 119.005 0.30116 119.697 0.299988H208.523C209.214 0.302382 209.876 0.577022 210.366 1.06438C210.856 1.55174 211.134 2.21255 211.14 2.90359V127.761C211.14 128.456 210.865 129.123 210.374 129.615C209.884 130.108 209.218 130.386 208.523 130.388ZM119.697 0.391988C119.031 0.393204 118.393 0.658208 117.922 1.12896C117.452 1.59971 117.187 2.23784 117.185 2.90359V127.761C117.187 128.427 117.452 129.065 117.922 129.536C118.393 130.007 119.031 130.272 119.697 130.273H208.523C209.189 130.272 209.827 130.007 210.298 129.536C210.768 129.065 211.033 128.427 211.035 127.761V2.90359C211.033 2.23784 210.768 1.59971 210.298 1.12896C209.827 0.658208 209.189 0.393204 208.523 0.391988H119.697Z" fill="#EBEBEB"/>
<path d="M61.156 148.3H67.1406L67.1406 73.0306H61.156L61.156 148.3Z" fill="#F0F0F0"/>
<path d="M32.4011 150.895H65.5625V148.296H32.4011V150.895Z" fill="#F0F0F0"/>
<path d="M61.1566 73.026H30.8242V148.296H61.1566V73.026Z" fill="#FAFAFA"/>
<path d="M57.9234 112.223H34.0586V125.664H57.9234V112.223Z" fill="#F0F0F0"/>
<path d="M57.9234 129.813H34.0586V143.254H57.9234V129.813Z" fill="#F0F0F0"/>
<path d="M42.652 113.718H49.322C49.7234 113.718 50.0488 113.392 50.0488 112.991V112.6C50.0488 112.198 49.7234 111.873 49.322 111.873H42.652C42.2506 111.873 41.9252 112.198 41.9252 112.6V112.991C41.9252 113.392 42.2506 113.718 42.652 113.718Z" fill="#FAFAFA"/>
<path d="M42.652 131.313H49.322C49.7234 131.313 50.0488 130.987 50.0488 130.586V130.195C50.0488 129.793 49.7234 129.468 49.322 129.468H42.652C42.2506 129.468 41.9252 129.793 41.9252 130.195V130.586C41.9252 130.987 42.2506 131.313 42.652 131.313Z" fill="#FAFAFA"/>
<path d="M57.9234 77.1798H34.0586V90.621H57.9234V77.1798Z" fill="#F0F0F0"/>
<path d="M57.9234 94.6322H34.0586V108.073H57.9234V94.6322Z" fill="#F0F0F0"/>
<path d="M42.652 78.6702H49.322C49.7234 78.6702 50.0488 78.3448 50.0488 77.9434V77.5524C50.0488 77.151 49.7234 76.8256 49.322 76.8256H42.652C42.2506 76.8256 41.9252 77.151 41.9252 77.5524V77.9434C41.9252 78.3448 42.2506 78.6702 42.652 78.6702Z" fill="#FAFAFA"/>
<path d="M42.652 96.1272H49.322C49.7234 96.1272 50.0488 95.8018 50.0488 95.4004V95.0094C50.0488 94.608 49.7234 94.2826 49.322 94.2826H42.652C42.2506 94.2826 41.9252 94.608 41.9252 95.0094V95.4004C41.9252 95.8018 42.2506 96.1272 42.652 96.1272Z" fill="#FAFAFA"/>
<path d="M94.3501 148.3H104.254L104.254 73.0306H94.3501L94.3501 148.3Z" fill="#F0F0F0"/>
<path d="M65.5957 150.895H102.414V148.296H65.5957V150.895Z" fill="#F0F0F0"/>
<path d="M94.3519 73.026H64.0195V148.296H94.3519V73.026Z" fill="#FAFAFA"/>
<path d="M91.1168 112.223H67.252V125.664H91.1168V112.223Z" fill="#F0F0F0"/>
<path d="M91.1168 129.813H67.252V143.254H91.1168V129.813Z" fill="#F0F0F0"/>
<path d="M75.8493 113.718H82.5193C82.9207 113.718 83.2461 113.392 83.2461 112.991V112.6C83.2461 112.198 82.9207 111.873 82.5193 111.873H75.8493C75.4479 111.873 75.1225 112.198 75.1225 112.6V112.991C75.1225 113.392 75.4479 113.718 75.8493 113.718Z" fill="#FAFAFA"/>
<path d="M75.8493 131.313H82.5193C82.9207 131.313 83.2461 130.987 83.2461 130.586V130.195C83.2461 129.793 82.9207 129.468 82.5193 129.468H75.8493C75.4479 129.468 75.1225 129.793 75.1225 130.195V130.586C75.1225 130.987 75.4479 131.313 75.8493 131.313Z" fill="#FAFAFA"/>
<path d="M91.1168 77.1798H67.252V90.621H91.1168V77.1798Z" fill="#F0F0F0"/>
<path d="M91.1168 94.6322H67.252V108.073H91.1168V94.6322Z" fill="#F0F0F0"/>
<path d="M75.8493 78.6702H82.5193C82.9207 78.6702 83.2461 78.3448 83.2461 77.9434V77.5524C83.2461 77.151 82.9207 76.8256 82.5193 76.8256H75.8493C75.4479 76.8256 75.1225 77.151 75.1225 77.5524V77.9434C75.1225 78.3448 75.4479 78.6702 75.8493 78.6702Z" fill="#FAFAFA"/>
<path d="M75.8493 96.1272H82.5193C82.9207 96.1272 83.2461 95.8018 83.2461 95.4004V95.0094C83.2461 94.608 82.9207 94.2826 82.5193 94.2826H75.8493C75.4479 94.2826 75.1225 94.608 75.1225 95.0094V95.4004C75.1225 95.8018 75.4479 96.1272 75.8493 96.1272Z" fill="#FAFAFA"/>
<path d="M29.9084 48.9588L107.727 48.9588V16.4552L29.9084 16.4552V48.9588Z" fill="#E6E6E6"/>
<path d="M26.5613 48.9588L106.836 48.9588V16.4552L26.5613 16.4552V48.9588Z" fill="#F0F0F0"/>
<path d="M102.594 44.713V20.6918L30.8016 20.6918V44.713H102.594Z" fill="#FAFAFA"/>
<path d="M67.4322 44.7176L60.3022 20.6918H50.6836L57.8136 44.7176H67.4322Z" fill="white"/>
<path d="M93.7759 44.7176L86.6459 20.6918H77.0273L84.1573 44.7176H93.7759Z" fill="white"/>
<path d="M55.9966 44.7176L48.8666 20.6918H39.248L46.378 44.7176H55.9966Z" fill="white"/>
<path d="M176.041 7.6048H133.16V75.119H176.041V7.6048Z" fill="#EBEBEB"/>
<path d="M173.006 72.0876V10.6408L136.197 10.6408V72.0876H173.006Z" fill="#FAFAFA"/>
<path d="M153.46 72.0876H152.223L155.742 10.581H156.979L153.46 72.0876Z" fill="#E0E0E0"/>
<path d="M155.766 24.3672V26.1428L173.006 21.598V20.9724L155.766 24.3672Z" fill="#E0E0E0"/>
<path d="M154.602 44.5244V46.3L173.006 39.0136V38.388L154.602 44.5244Z" fill="#E0E0E0"/>
<path d="M153.01 65.3348V67.782L173.006 56.719V56.0934L153.01 65.3348Z" fill="#E0E0E0"/>
<path d="M155.061 33.4522V35.2278L136.656 27.9414V27.3158L155.061 33.4522Z" fill="#E0E0E0"/>
<path d="M153.57 54.8698V57.317L136.656 48.2872V47.6616L153.57 54.8698Z" fill="#E0E0E0"/>
<path d="M136.656 72.0876V10.6408H136.201V72.0876H136.656Z" fill="#E0E0E0"/>
<path d="M176.043 75.1236H177.455V7.6094H176.043V75.1236Z" fill="#E0E0E0"/>
<path d="M192.901 70.1648C192.901 67.3634 193.987 63.1682 193.987 63.1682H185.38C185.38 63.1682 186.47 67.3634 186.47 70.1648C186.47 72.9662 183.066 77.9848 183.066 81.996C183.066 86.0072 186.498 90.9982 186.498 90.9982H192.864C192.864 90.9982 196.296 86.0026 196.296 81.996C196.296 77.9894 192.901 72.98 192.901 70.1648Z" fill="#E0E0E0"/>
<path d="M198.417 74.0932C198.417 71.8208 198.831 68.4122 198.831 68.4122H195.569C195.569 68.4122 195.983 71.8208 195.983 74.0932C195.983 76.3656 194.695 80.4412 194.695 83.6934C194.695 86.9456 195.993 90.9982 195.993 90.9982H198.408C198.408 90.9982 199.705 86.9456 199.705 83.6934C199.705 80.4412 198.417 76.361 198.417 74.0932Z" fill="#F0F0F0"/>
<path d="M118.847 150.899H123.736L123.736 90.9936H118.847V150.899Z" fill="#E6E6E6"/>
<path d="M117.534 150.899H120.414L120.414 90.9936H117.534L117.534 150.899Z" fill="#F0F0F0"/>
<path d="M186.084 90.9982H116.643V94.0664H186.084V90.9982Z" fill="#F0F0F0"/>
<path d="M209.659 150.899H214.549V90.9936H209.659V150.899Z" fill="#E6E6E6"/>
<path d="M208.74 150.899H211.619V90.9936H208.74V150.899Z" fill="#F0F0F0"/>
<path d="M215.424 90.9982H188.178V94.0664H215.424V90.9982Z" fill="#E6E6E6"/>
<path d="M186.497 150.899H191.387V90.9936H186.497V150.899Z" fill="#E6E6E6"/>
<path d="M185.191 150.899H188.07V90.9936H185.191V150.899Z" fill="#F0F0F0"/>
<path d="M118.385 90.9982L151.362 110.801L184.34 90.9982H118.385Z" fill="#FAFAFA"/>
<path d="M121.463 90.9982L151.363 108.952L181.263 90.9982H121.463Z" fill="#EBEBEB"/>
<path d="M190.527 90.9982L202.382 108.952L214.24 90.9982H190.527Z" fill="#FAFAFA"/>
<path d="M191.939 90.9982L202.69 107.107L213.44 90.9982H191.939Z" fill="#EBEBEB"/>
</svg>
