<svg width="230" height="203" viewBox="0 0 230 203" fill="none" xmlns="http://www.w3.org/2000/svg">
<path d="M230 175.904H0V176.019H230V175.904Z" fill="#EBEBEB"/>
<path d="M204.19 180.283H188.955V180.398H204.19V180.283Z" fill="#EBEBEB"/>
<path d="M83.4122 181.843H60.4766V181.958H83.4122V181.843Z" fill="#EBEBEB"/>
<path d="M188.494 184.557H174.91V184.672H188.494V184.557Z" fill="#EBEBEB"/>
<path d="M34.0669 183.784H24.1309V183.899H34.0669V183.784Z" fill="#EBEBEB"/>
<path d="M55.8104 183.784H38.1602V183.899H55.8104V183.784Z" fill="#EBEBEB"/>
<path d="M152.36 179.037H109.268V179.152H152.36V179.037Z" fill="#EBEBEB"/>
<path d="M109.02 155.388H20.1982C19.5024 155.387 18.8354 155.11 18.3439 154.617C17.8523 154.125 17.5762 153.457 17.5762 152.761V27.9036C17.5822 27.2118 17.861 26.5503 18.3519 26.0628C18.8429 25.5753 19.5063 25.3012 20.1982 25.3H109.02C109.716 25.3 110.384 25.5767 110.877 26.0693C111.369 26.5619 111.646 27.23 111.646 27.9266V152.761C111.646 153.458 111.369 154.126 110.877 154.619C110.384 155.111 109.716 155.388 109.02 155.388ZM20.1982 25.392C19.5329 25.3932 18.8952 25.6584 18.4252 26.1292C17.9552 26.6001 17.6912 27.2383 17.6912 27.9036V152.761C17.6912 153.427 17.9552 154.065 18.4252 154.536C18.8952 155.007 19.5329 155.272 20.1982 155.273H109.02C109.685 155.272 110.323 155.007 110.794 154.536C111.265 154.065 111.53 153.427 111.531 152.761V27.9036C111.53 27.2378 111.265 26.5997 110.794 26.129C110.323 25.6582 109.685 25.3932 109.02 25.392H20.1982Z" fill="#EBEBEB"/>
<path d="M208.523 155.388H119.697C119.001 155.387 118.333 155.11 117.841 154.617C117.349 154.125 117.072 153.458 117.07 152.761V27.9036C117.078 27.2113 117.357 26.5498 117.849 26.0625C118.341 25.5751 119.005 25.3012 119.697 25.3H208.523C209.214 25.3024 209.876 25.577 210.366 26.0644C210.856 26.5517 211.134 27.2126 211.14 27.9036V152.761C211.14 153.456 210.865 154.123 210.374 154.615C209.884 155.108 209.218 155.386 208.523 155.388ZM119.697 25.392C119.031 25.3932 118.393 25.6582 117.922 26.129C117.452 26.5997 117.187 27.2378 117.185 27.9036V152.761C117.187 153.427 117.452 154.065 117.922 154.536C118.393 155.007 119.031 155.272 119.697 155.273H208.523C209.189 155.272 209.827 155.007 210.298 154.536C210.768 154.065 211.033 153.427 211.035 152.761V27.9036C211.033 27.2378 210.768 26.5997 210.298 26.129C209.827 25.6582 209.189 25.3932 208.523 25.392H119.697Z" fill="#EBEBEB"/>
<path d="M61.156 173.3H67.1406L67.1406 98.0306H61.156L61.156 173.3Z" fill="#F0F0F0"/>
<path d="M32.4011 175.895H65.5625V173.296H32.4011V175.895Z" fill="#F0F0F0"/>
<path d="M61.1566 98.026H30.8242V173.296H61.1566V98.026Z" fill="#FAFAFA"/>
<path d="M57.9234 137.223H34.0586V150.664H57.9234V137.223Z" fill="#F0F0F0"/>
<path d="M57.9234 154.813H34.0586V168.254H57.9234V154.813Z" fill="#F0F0F0"/>
<path d="M42.652 138.718H49.322C49.7234 138.718 50.0488 138.392 50.0488 137.991V137.6C50.0488 137.198 49.7234 136.873 49.322 136.873H42.652C42.2506 136.873 41.9252 137.198 41.9252 137.6V137.991C41.9252 138.392 42.2506 138.718 42.652 138.718Z" fill="#FAFAFA"/>
<path d="M42.652 156.313H49.322C49.7234 156.313 50.0488 155.987 50.0488 155.586V155.195C50.0488 154.793 49.7234 154.468 49.322 154.468H42.652C42.2506 154.468 41.9252 154.793 41.9252 155.195V155.586C41.9252 155.987 42.2506 156.313 42.652 156.313Z" fill="#FAFAFA"/>
<path d="M57.9234 102.18H34.0586V115.621H57.9234V102.18Z" fill="#F0F0F0"/>
<path d="M57.9234 119.632H34.0586V133.073H57.9234V119.632Z" fill="#F0F0F0"/>
<path d="M42.652 103.67H49.322C49.7234 103.67 50.0488 103.345 50.0488 102.943V102.552C50.0488 102.151 49.7234 101.826 49.322 101.826H42.652C42.2506 101.826 41.9252 102.151 41.9252 102.552V102.943C41.9252 103.345 42.2506 103.67 42.652 103.67Z" fill="#FAFAFA"/>
<path d="M42.652 121.127H49.322C49.7234 121.127 50.0488 120.802 50.0488 120.4V120.009C50.0488 119.608 49.7234 119.283 49.322 119.283H42.652C42.2506 119.283 41.9252 119.608 41.9252 120.009V120.4C41.9252 120.802 42.2506 121.127 42.652 121.127Z" fill="#FAFAFA"/>
<path d="M94.3501 173.3H104.254L104.254 98.0306H94.3501L94.3501 173.3Z" fill="#F0F0F0"/>
<path d="M65.5957 175.895H102.414V173.296H65.5957V175.895Z" fill="#F0F0F0"/>
<path d="M94.3519 98.026H64.0195V173.296H94.3519V98.026Z" fill="#FAFAFA"/>
<path d="M91.1168 137.223H67.252V150.664H91.1168V137.223Z" fill="#F0F0F0"/>
<path d="M91.1168 154.813H67.252V168.254H91.1168V154.813Z" fill="#F0F0F0"/>
<path d="M75.8493 138.718H82.5193C82.9207 138.718 83.2461 138.392 83.2461 137.991V137.6C83.2461 137.198 82.9207 136.873 82.5193 136.873H75.8493C75.4479 136.873 75.1225 137.198 75.1225 137.6V137.991C75.1225 138.392 75.4479 138.718 75.8493 138.718Z" fill="#FAFAFA"/>
<path d="M75.8493 156.313H82.5193C82.9207 156.313 83.2461 155.987 83.2461 155.586V155.195C83.2461 154.793 82.9207 154.468 82.5193 154.468H75.8493C75.4479 154.468 75.1225 154.793 75.1225 155.195V155.586C75.1225 155.987 75.4479 156.313 75.8493 156.313Z" fill="#FAFAFA"/>
<path d="M91.1168 102.18H67.252V115.621H91.1168V102.18Z" fill="#F0F0F0"/>
<path d="M91.1168 119.632H67.252V133.073H91.1168V119.632Z" fill="#F0F0F0"/>
<path d="M75.8493 103.67H82.5193C82.9207 103.67 83.2461 103.345 83.2461 102.943V102.552C83.2461 102.151 82.9207 101.826 82.5193 101.826H75.8493C75.4479 101.826 75.1225 102.151 75.1225 102.552V102.943C75.1225 103.345 75.4479 103.67 75.8493 103.67Z" fill="#FAFAFA"/>
<path d="M75.8493 121.127H82.5193C82.9207 121.127 83.2461 120.802 83.2461 120.4V120.009C83.2461 119.608 82.9207 119.283 82.5193 119.283H75.8493C75.4479 119.283 75.1225 119.608 75.1225 120.009V120.4C75.1225 120.802 75.4479 121.127 75.8493 121.127Z" fill="#FAFAFA"/>
<path d="M29.9084 73.9588L107.727 73.9588V41.4552L29.9084 41.4552V73.9588Z" fill="#E6E6E6"/>
<path d="M26.5613 73.9588L106.836 73.9588V41.4552L26.5613 41.4552V73.9588Z" fill="#F0F0F0"/>
<path d="M102.594 69.713V45.6918L30.8016 45.6918V69.713H102.594Z" fill="#FAFAFA"/>
<path d="M67.4322 69.7176L60.3022 45.6918H50.6836L57.8136 69.7176H67.4322Z" fill="white"/>
<path d="M93.7759 69.7176L86.6459 45.6918H77.0273L84.1573 69.7176H93.7759Z" fill="white"/>
<path d="M55.9966 69.7176L48.8666 45.6918H39.248L46.378 69.7176H55.9966Z" fill="white"/>
<path d="M176.041 32.6048H133.16V100.119H176.041V32.6048Z" fill="#EBEBEB"/>
<path d="M173.006 97.0876V35.6408H136.197V97.0876H173.006Z" fill="#FAFAFA"/>
<path d="M153.46 97.0876H152.223L155.742 35.581H156.979L153.46 97.0876Z" fill="#E0E0E0"/>
<path d="M155.766 49.3672V51.1428L173.006 46.598V45.9724L155.766 49.3672Z" fill="#E0E0E0"/>
<path d="M154.602 69.5244V71.3L173.006 64.0136V63.388L154.602 69.5244Z" fill="#E0E0E0"/>
<path d="M153.01 90.3348V92.782L173.006 81.719V81.0934L153.01 90.3348Z" fill="#E0E0E0"/>
<path d="M155.061 58.4522V60.2278L136.656 52.9414V52.3158L155.061 58.4522Z" fill="#E0E0E0"/>
<path d="M153.57 79.8698V82.317L136.656 73.2872V72.6616L153.57 79.8698Z" fill="#E0E0E0"/>
<path d="M136.656 97.0876V35.6408H136.201V97.0876H136.656Z" fill="#E0E0E0"/>
<path d="M176.043 100.124H177.455V32.6094H176.043V100.124Z" fill="#E0E0E0"/>
<path d="M192.901 95.1648C192.901 92.3634 193.987 88.1682 193.987 88.1682H185.38C185.38 88.1682 186.47 92.3634 186.47 95.1648C186.47 97.9662 183.066 102.985 183.066 106.996C183.066 111.007 186.498 115.998 186.498 115.998H192.864C192.864 115.998 196.296 111.003 196.296 106.996C196.296 102.989 192.901 97.98 192.901 95.1648Z" fill="#E0E0E0"/>
<path d="M198.417 99.0932C198.417 96.8208 198.831 93.4122 198.831 93.4122H195.569C195.569 93.4122 195.983 96.8208 195.983 99.0932C195.983 101.366 194.695 105.441 194.695 108.693C194.695 111.946 195.993 115.998 195.993 115.998H198.408C198.408 115.998 199.705 111.946 199.705 108.693C199.705 105.441 198.417 101.361 198.417 99.0932Z" fill="#F0F0F0"/>
<path d="M118.847 175.899H123.736L123.736 115.994H118.847V175.899Z" fill="#E6E6E6"/>
<path d="M117.534 175.899H120.414L120.414 115.994H117.534L117.534 175.899Z" fill="#F0F0F0"/>
<path d="M186.084 115.998H116.643V119.066H186.084V115.998Z" fill="#F0F0F0"/>
<path d="M209.659 175.899H214.549V115.994H209.659V175.899Z" fill="#E6E6E6"/>
<path d="M208.74 175.899H211.619V115.994H208.74V175.899Z" fill="#F0F0F0"/>
<path d="M215.424 115.998H188.178V119.066H215.424V115.998Z" fill="#E6E6E6"/>
<path d="M186.497 175.899H191.387V115.994H186.497V175.899Z" fill="#E6E6E6"/>
<path d="M185.191 175.899H188.07V115.994H185.191V175.899Z" fill="#F0F0F0"/>
<path d="M118.385 115.998L151.362 135.801L184.34 115.998H118.385Z" fill="#FAFAFA"/>
<path d="M121.463 115.998L151.363 133.952L181.263 115.998H121.463Z" fill="#EBEBEB"/>
<path d="M190.527 115.998L202.382 133.952L214.24 115.998H190.527Z" fill="#FAFAFA"/>
<path d="M191.939 115.998L202.69 132.107L213.44 115.998H191.939Z" fill="#EBEBEB"/>
<path d="M115 196.678C164.258 196.678 204.189 194.346 204.189 191.47C204.189 188.595 164.258 186.263 115 186.263C65.742 186.263 25.8105 188.595 25.8105 191.47C25.8105 194.346 65.742 196.678 115 196.678Z" fill="#F5F5F5"/>
<path d="M92.8195 187.229L89.1211 186.015L90.9473 177.128L94.6457 178.342L92.8195 187.229Z" fill="#FFB573"/>
<path d="M124.987 187.275H121.091L120.125 178.264H124.017L124.987 187.275Z" fill="#FFB573"/>
<path d="M120.773 186.824H125.516C125.594 186.824 125.669 186.851 125.73 186.899C125.791 186.948 125.834 187.015 125.852 187.091L126.62 190.55C126.638 190.635 126.637 190.722 126.616 190.806C126.596 190.89 126.557 190.968 126.502 191.035C126.447 191.102 126.378 191.155 126.3 191.192C126.221 191.228 126.136 191.246 126.05 191.245C124.522 191.217 123.409 191.13 121.486 191.13C120.3 191.13 116.735 191.25 115.102 191.25C113.469 191.25 113.262 189.635 113.919 189.488C116.919 188.835 119.182 187.928 120.139 187.064C120.314 186.91 120.54 186.825 120.773 186.824Z" fill="#263238"/>
<path d="M89.1847 185.431L93.2833 186.558C93.3572 186.579 93.4219 186.625 93.4669 186.687C93.5119 186.75 93.5347 186.826 93.5317 186.903L93.3523 190.445C93.3487 190.53 93.3257 190.614 93.285 190.689C93.2443 190.765 93.187 190.83 93.1175 190.88C93.0479 190.93 92.9679 190.964 92.8835 190.978C92.799 190.993 92.7124 190.988 92.6301 190.964C91.1581 190.532 89.0467 189.856 87.1883 189.341C85.0171 188.743 84.6123 188.536 82.0639 187.836C80.5229 187.409 80.5229 185.734 81.2083 185.771C84.3225 185.937 85.2333 186.337 88.2003 185.472C88.5181 185.367 88.8591 185.352 89.1847 185.431Z" fill="#263238"/>
<path d="M108.358 69C108.109 69.322 107.921 69.5612 107.7 69.8326C107.479 70.104 107.267 70.3432 107.047 70.5962C106.587 71.0976 106.127 71.5852 105.667 72.0636C104.738 73.0387 103.756 73.9602 102.723 74.8236C100.588 76.6707 98.1426 78.1252 95.5006 79.12C94.7721 79.3768 94.0225 79.5692 93.2604 79.695C93.0672 79.7226 92.8694 79.7594 92.6716 79.7824L92.069 79.8376C91.8147 79.853 91.5597 79.853 91.3054 79.8376C91.0542 79.8231 90.8039 79.7955 90.5556 79.7548C89.7459 79.6084 88.9578 79.3611 88.2096 79.0188C87.5596 78.7349 86.9295 78.4076 86.3236 78.039C85.1806 77.3503 84.0876 76.5817 83.053 75.739C82.0304 74.9279 81.0609 74.0521 80.1504 73.117L81.9122 70.7894C84.0742 71.8612 86.2868 72.9928 88.4028 73.807C88.9318 74.0048 89.4516 74.1842 89.9392 74.3222C90.3506 74.4449 90.7754 74.5175 91.2042 74.5384C91.264 74.5414 91.3238 74.5414 91.3836 74.5384C91.4158 74.5384 91.4112 74.5384 91.5538 74.5016L91.8758 74.4464L92.207 74.3682C92.4232 74.3222 92.667 74.2302 92.874 74.1704C93.081 74.1106 93.334 74.0094 93.5548 73.9036C94.5167 73.4929 95.4312 72.9793 96.2826 72.3718C97.2056 71.7403 98.0861 71.0489 98.9184 70.3018C99.7786 69.5566 100.602 68.7424 101.412 67.9144C101.816 67.5004 102.212 67.0726 102.594 66.6402L103.164 65.9916L103.689 65.3752L108.358 69Z" fill="#FFB573"/>
<path d="M110.497 67.0864C110.782 70.794 102.429 78.3656 102.429 78.3656L95.041 71.9624C95.041 71.9624 98.1506 68.6688 101.647 65.3522C104.048 63.0752 110.184 63.0706 110.497 67.0864Z" fill="white"/>
<path opacity="0.4" d="M110.497 67.0864C110.782 70.794 102.429 78.3656 102.429 78.3656L95.041 71.9624C95.041 71.9624 98.1506 68.6688 101.647 65.3522C104.048 63.0752 110.184 63.0706 110.497 67.0864Z" fill="#475569"/>
<path opacity="0.2" d="M106.72 69C103.288 69.3128 101.094 72.0728 100.133 75.1226C100.027 75.463 99.9349 75.8126 99.8613 76.1576L102.419 78.3748C102.419 78.3748 106.223 74.9294 108.606 71.5484C108.735 69.943 108.279 68.8528 106.72 69Z" fill="black"/>
<path d="M82.8005 72.4684L81.5355 69.2484L77.2207 70.5732C78.1595 71.5702 79.195 72.4717 80.3119 73.2642L82.8005 72.4684Z" fill="#FFB573"/>
<path d="M79.3729 66.7506L75.8125 68.1766L77.2339 70.5824L81.5487 69.2576L79.3729 66.7506Z" fill="#FFB573"/>
<path opacity="0.2" d="M90.9471 177.132L89.8477 182.468L93.6013 183.425L94.6455 178.347L90.9471 177.132Z" fill="black"/>
<path opacity="0.2" d="M124.017 178.264H120.125L120.626 182.91H124.518L124.017 178.264Z" fill="black"/>
<path d="M126.317 65.2878C125.175 69.4891 124.347 73.7698 123.842 78.0942C123.474 81.1072 123.253 83.9868 123.115 86.5996C122.793 92.7176 122.927 97.382 122.743 98.9598L101.974 97.52C99.1494 75.3756 104.55 63.9676 104.55 63.9676C106.192 63.6625 107.851 63.4582 109.518 63.3558C109.87 63.3313 110.229 63.3175 110.594 63.3144C113.546 63.3541 116.493 63.5629 119.422 63.94C119.978 64.009 120.539 64.0872 121.087 64.1746C123.87 64.6116 126.317 65.2878 126.317 65.2878Z" fill="white"/>
<path opacity="0.4" d="M126.317 65.2878C125.175 69.4891 124.347 73.7698 123.842 78.0942C123.474 81.1072 123.253 83.9868 123.115 86.5996C122.793 92.7176 122.927 97.382 122.743 98.9598L101.974 97.52C99.1494 75.3756 104.55 63.9676 104.55 63.9676C106.192 63.6625 107.851 63.4582 109.518 63.3558C109.87 63.3313 110.229 63.3175 110.594 63.3144C113.546 63.3541 116.493 63.5629 119.422 63.94C119.978 64.009 120.539 64.0872 121.087 64.1746C123.87 64.6116 126.317 65.2878 126.317 65.2878Z" fill="#475569"/>
<path opacity="0.2" d="M121.067 70.8906C121.033 74.0758 121.926 77.2022 123.639 79.8882C123.699 79.2994 123.768 78.6968 123.841 78.0942C124.117 75.8264 124.476 73.4942 124.95 71.1114L121.067 70.8906Z" fill="black"/>
<path d="M119.242 53.9212C118.483 56.7226 117.567 61.8884 119.421 63.9216C118.483 64.7729 117.372 65.413 116.165 65.7986C114.958 66.1843 113.683 66.3066 112.425 66.1572C109.987 65.9318 109.982 64.216 110.585 63.3052C113.805 62.7716 113.887 60.4164 113.487 58.1716L119.242 53.9212Z" fill="#FFB573"/>
<path opacity="0.2" d="M116.901 55.66L113.502 58.1716C113.603 58.6948 113.657 59.2259 113.663 59.7586C114.887 59.6666 116.639 58.4568 116.86 57.1964C116.966 56.6909 116.98 56.1705 116.901 55.66Z" fill="black"/>
<path d="M113.07 49.7306C112.15 51.0324 109.735 48.6358 109.827 46.5106C113.323 46.0506 111.667 43.4884 114.841 44.1462C117.481 44.666 114.082 48.3 113.07 49.7306Z" fill="#263238"/>
<path d="M121.781 50.5724C120.613 54.2524 120.116 56.4696 117.742 57.9324C114.173 60.1036 109.991 57.2286 110.037 53.2726C110.079 49.7122 111.988 44.2888 116.017 43.723C116.905 43.5941 117.81 43.6936 118.648 44.0123C119.485 44.3309 120.228 44.8581 120.805 45.544C121.382 46.2298 121.775 47.0516 121.946 47.9315C122.116 48.8115 122.06 49.7204 121.781 50.5724Z" fill="#FFB573"/>
<path d="M119.573 53.9212C119.394 53.0128 119.343 52.0838 119.421 51.1612C119.553 50.4397 119.781 49.739 120.098 49.0774C120.098 49.0774 117.894 47.7756 117.844 46.207C117.844 46.207 113.906 47.3662 111.804 45.5952C109.702 43.8242 111.578 41.7772 110.502 40.9952C113.078 40.7468 113.86 42.3108 115.488 41.9704C117.117 41.63 115.677 40.4846 115.893 39.2104C120.801 43.4378 122.936 41.4552 125.319 43.8748C126.841 45.4204 125.24 48.3184 125.24 48.3184C125.24 48.3184 127.669 52.44 119.573 53.9212Z" fill="#263238"/>
<path d="M124.457 48.231C124.457 48.231 126.867 48.7278 126.932 46.2024C128.174 48.76 126.619 49.1602 124.457 48.231Z" fill="#263238"/>
<path d="M113.585 54.0822C114.023 54.2034 114.483 54.2173 114.928 54.1228C115.372 54.0283 115.787 53.8282 116.138 53.5394C116.157 53.5204 116.167 53.4948 116.167 53.4681C116.167 53.4414 116.157 53.4158 116.138 53.3968C116.119 53.3793 116.094 53.3696 116.069 53.3696C116.043 53.3696 116.019 53.3793 116 53.3968C115.672 53.6599 115.286 53.8419 114.875 53.9282C114.463 54.0145 114.037 54.0027 113.631 53.8936C113.605 53.8889 113.578 53.8938 113.555 53.9073C113.532 53.9208 113.515 53.9421 113.507 53.9672C113.504 53.9926 113.51 54.0182 113.524 54.0394C113.539 54.0605 113.56 54.0757 113.585 54.0822Z" fill="#263238"/>
<path d="M122.434 54.6388C122.087 54.9712 121.677 55.2316 121.229 55.4053C120.78 55.579 120.302 55.6624 119.821 55.6508C118.533 55.614 118.271 54.372 118.947 53.3508C119.559 52.4308 120.962 51.359 122.103 51.8926C123.244 52.4262 123.281 53.82 122.434 54.6388Z" fill="#FFB573"/>
<path d="M88.8184 180.55L95.171 182.298C95.171 182.298 103.129 157.214 105.084 143.437C105.604 139.78 106.404 134.647 107.623 129.177C109.169 122.277 111.101 114.821 112.683 108.979C114.358 102.824 115.627 98.4722 115.627 98.4722L101.974 97.52C101.974 97.52 96.3854 128.105 95.0744 139.914C93.722 152.186 88.8184 180.55 88.8184 180.55Z" fill="#475569"/>
<path opacity="0.3" d="M88.8184 180.55L95.171 182.298C95.171 182.298 103.129 157.214 105.084 143.437C105.604 139.78 106.404 134.647 107.623 129.177C109.169 122.277 111.101 114.821 112.683 108.979C114.358 102.824 115.627 98.4722 115.627 98.4722L101.974 97.52C101.974 97.52 96.3854 128.105 95.0744 139.914C93.722 152.186 88.8184 180.55 88.8184 180.55Z" fill="black"/>
<path opacity="0.2" d="M107.639 129.173C109.185 122.273 111.117 114.816 112.699 108.974L111.283 105.92C107.879 109.94 106.968 122.401 107.639 129.173Z" fill="black"/>
<path d="M109.338 98.0306C109.338 98.0306 110.814 131.353 112.457 142.651C114.255 155.011 118.828 182.022 118.828 182.022H125.953C125.953 182.022 123.598 153.599 122.554 141.464C121.367 127.664 122.742 98.9736 122.742 98.9736L109.338 98.0306Z" fill="#475569"/>
<path opacity="0.3" d="M109.338 98.0306C109.338 98.0306 110.814 131.353 112.457 142.651C114.255 155.011 118.828 182.022 118.828 182.022H125.953C125.953 182.022 123.598 153.599 122.554 141.464C121.367 127.664 122.742 98.9736 122.742 98.9736L109.338 98.0306Z" fill="black"/>
<path d="M117.973 182.165H126.368V179.658L116.984 179.497L117.973 182.165Z" fill="#475569"/>
<path d="M88.377 180.587L95.553 182.565L96.5834 180.095L88.4092 177.827L88.377 180.587Z" fill="#475569"/>
<path d="M115.848 50.1906C115.774 50.4942 115.549 50.7012 115.351 50.6506C115.153 50.6 115.052 50.3148 115.13 50.0112C115.208 49.7076 115.429 49.5006 115.627 49.5512C115.825 49.6018 115.921 49.887 115.848 50.1906Z" fill="#263238"/>
<path d="M112.406 49.3258C112.328 49.6294 112.107 49.8364 111.91 49.7858C111.712 49.7352 111.611 49.45 111.684 49.1418C111.758 48.8336 111.988 48.6312 112.186 48.6818C112.383 48.7324 112.485 49.0222 112.406 49.3258Z" fill="#263238"/>
<path d="M113.463 49.7536C112.865 50.5922 112.155 51.3445 111.352 51.9892C111.766 52.6286 112.796 52.5642 112.796 52.5642L113.463 49.7536Z" fill="#ED893E"/>
<path d="M117.195 49.3488C117.161 49.3461 117.128 49.3339 117.1 49.3136C117.073 49.2933 117.051 49.2656 117.039 49.2338C116.954 49.019 116.82 48.8271 116.647 48.6736C116.475 48.5202 116.268 48.4096 116.045 48.3506C115.996 48.3416 115.953 48.3139 115.925 48.2735C115.896 48.2331 115.885 48.1831 115.893 48.1344C115.898 48.1105 115.907 48.0877 115.92 48.0673C115.933 48.0469 115.95 48.0294 115.971 48.0157C115.991 48.002 116.013 47.9924 116.037 47.9876C116.061 47.9827 116.085 47.9825 116.109 47.9872C116.394 48.057 116.657 48.1936 116.878 48.3856C117.099 48.5776 117.27 48.8195 117.379 49.0912C117.398 49.1364 117.398 49.1872 117.38 49.2326C117.362 49.2781 117.327 49.3148 117.282 49.335C117.254 49.3441 117.225 49.3487 117.195 49.3488Z" fill="#263238"/>
<path d="M111.229 47.771C111.19 47.7665 111.153 47.7505 111.123 47.725C111.089 47.6906 111.07 47.6443 111.07 47.5962C111.07 47.548 111.089 47.5018 111.123 47.4674C111.307 47.2386 111.542 47.057 111.81 46.9377C112.078 46.8185 112.371 46.7651 112.664 46.782C112.712 46.7889 112.756 46.8143 112.786 46.8529C112.816 46.8915 112.83 46.9403 112.825 46.989C112.817 47.0369 112.791 47.0801 112.753 47.11C112.715 47.1398 112.666 47.1541 112.618 47.15C112.387 47.1391 112.157 47.1835 111.946 47.2795C111.736 47.3755 111.551 47.5204 111.408 47.702C111.386 47.7271 111.358 47.7466 111.327 47.7586C111.296 47.7706 111.262 47.7748 111.229 47.771Z" fill="#263238"/>
<path d="M119.486 187.505C119.221 187.525 118.957 187.455 118.736 187.307C118.667 187.248 118.613 187.172 118.58 187.087C118.547 187.002 118.536 186.91 118.547 186.82C118.547 186.766 118.561 186.713 118.589 186.667C118.616 186.621 118.656 186.583 118.704 186.558C119.136 186.337 120.392 187.11 120.544 187.197C120.56 187.207 120.572 187.222 120.579 187.239C120.587 187.256 120.589 187.275 120.585 187.294C120.583 187.311 120.575 187.328 120.562 187.341C120.55 187.355 120.534 187.364 120.516 187.367C120.179 187.452 119.833 187.498 119.486 187.505ZM118.906 186.7C118.865 186.7 118.824 186.708 118.786 186.723C118.763 186.723 118.736 186.76 118.731 186.834C118.723 186.895 118.73 186.957 118.752 187.015C118.773 187.073 118.809 187.124 118.855 187.165C119.067 187.344 119.578 187.372 120.235 187.238C119.832 186.973 119.38 186.79 118.906 186.7Z" fill="#475569"/>
<path d="M120.484 187.367C120.469 187.372 120.452 187.372 120.438 187.367C120.037 187.146 119.255 186.295 119.338 185.863C119.352 185.795 119.389 185.733 119.442 185.689C119.496 185.645 119.563 185.62 119.633 185.619C119.702 185.61 119.774 185.616 119.841 185.636C119.908 185.657 119.971 185.692 120.024 185.739C120.484 186.107 120.571 187.229 120.576 187.28C120.576 187.296 120.573 187.312 120.565 187.326C120.558 187.341 120.547 187.353 120.534 187.363C120.518 187.368 120.501 187.37 120.484 187.367ZM119.697 185.789H119.656C119.536 185.789 119.527 185.858 119.522 185.881C119.472 186.139 119.982 186.801 120.369 187.087C120.34 186.643 120.18 186.219 119.909 185.868C119.85 185.817 119.775 185.789 119.697 185.789Z" fill="#475569"/>
<path d="M88.6747 185.84C88.0353 185.789 86.9175 185.642 86.6093 185.164C86.5664 185.096 86.5398 185.019 86.5319 184.939C86.5239 184.859 86.5346 184.779 86.5633 184.704C86.5788 184.656 86.6065 184.613 86.6436 184.579C86.6807 184.545 86.726 184.522 86.7749 184.511C87.2947 184.386 88.6149 185.559 88.7437 185.697C88.7568 185.71 88.7659 185.727 88.77 185.745C88.7741 185.763 88.7729 185.781 88.7667 185.799C88.7576 185.814 88.7438 185.826 88.7273 185.834C88.7108 185.841 88.6925 185.843 88.6747 185.84ZM86.8347 184.672H86.8071C86.7875 184.676 86.7695 184.685 86.7549 184.699C86.7403 184.713 86.7297 184.73 86.7243 184.75C86.7035 184.8 86.6951 184.855 86.6999 184.91C86.7047 184.964 86.7226 185.017 86.7519 185.063C86.9267 185.334 87.5339 185.523 88.4033 185.628C87.8605 185.187 87.1337 184.644 86.8301 184.676L86.8347 184.672Z" fill="#475569"/>
<path d="M88.6066 185.84C88.257 185.306 87.6866 184.327 87.8844 183.793C87.9113 183.714 87.9572 183.642 88.0181 183.584C88.079 183.526 88.1531 183.484 88.234 183.462C88.2819 183.445 88.3332 183.441 88.3831 183.45C88.433 183.459 88.4798 183.481 88.5192 183.512C88.9332 183.853 88.7952 185.601 88.7768 185.812C88.7745 185.831 88.7667 185.848 88.7544 185.862C88.7421 185.876 88.7258 185.886 88.7078 185.891C88.6876 185.896 88.6664 185.893 88.6479 185.884C88.6293 185.875 88.6147 185.859 88.6066 185.84ZM88.4088 183.66C88.3922 183.649 88.3731 183.644 88.3536 183.644C88.3341 183.644 88.315 183.649 88.2984 183.66C88.2448 183.674 88.1954 183.701 88.1546 183.739C88.1137 183.777 88.0826 183.824 88.0638 183.876C87.958 184.179 88.165 184.796 88.6204 185.527C88.6434 184.782 88.6204 183.862 88.4088 183.641V183.66Z" fill="#475569"/>
<path d="M126.892 67.528C127.789 68.793 128.552 70.0166 129.334 71.2908C130.116 72.565 130.829 73.853 131.528 75.1732C132.976 77.8654 134.153 80.6945 135.043 83.6188C135.149 84.0052 135.25 84.3916 135.342 84.7918C135.388 84.9896 135.429 85.192 135.47 85.399L135.53 85.7026L135.558 85.859L135.595 86.1074C135.712 87.1538 135.616 88.213 135.314 89.2216C134.859 90.78 134.214 92.2769 133.396 93.679C132.657 94.9922 131.841 96.2609 130.953 97.4786C130.087 98.6895 129.155 99.8519 128.161 100.961L125.769 99.2818C127.016 96.784 128.285 94.2218 129.26 91.7102C129.504 91.0846 129.72 90.459 129.909 89.8472C130.096 89.2767 130.238 88.6922 130.332 88.0992C130.411 87.7168 130.411 87.3224 130.332 86.94L130.3 86.8342L130.24 86.618C130.203 86.4708 130.162 86.3236 130.112 86.158C130.024 85.8636 129.923 85.56 129.817 85.261C128.86 82.7422 127.701 80.3053 126.349 77.9746C125.677 76.7648 124.969 75.578 124.242 74.382C123.515 73.186 122.751 71.9992 122.029 70.8906L126.892 67.528Z" fill="#FFB573"/>
<path d="M126.317 65.2878C129.965 66.0238 133.162 74.9478 133.162 74.9478L125.549 81.1486C125.549 81.1486 123.056 76.613 121.059 72.2384C118.883 67.4728 121.901 64.4 126.317 65.2878Z" fill="white"/>
<path opacity="0.4" d="M126.317 65.2878C129.965 66.0238 133.162 74.9478 133.162 74.9478L125.549 81.1486C125.549 81.1486 123.056 76.613 121.059 72.2384C118.883 67.4728 121.901 64.4 126.317 65.2878Z" fill="#475569"/>
<path d="M75.3937 77.9277L73.5547 84.5591L73.9935 84.6808L75.8326 78.0494L75.3937 77.9277Z" fill="#475569"/>
<path d="M72.8793 87.0026L72.084 89.8705L72.5228 89.9922L73.3182 87.1243L72.8793 87.0026Z" fill="#475569"/>
<path d="M124.084 74.9564L85.9918 64.2429C83.0968 63.4287 80.09 65.1154 79.2757 68.0104L68.5623 106.103C67.748 108.998 69.4348 112.005 72.3298 112.819L110.422 123.532C113.317 124.347 116.324 122.66 117.138 119.765L127.852 81.6724C128.666 78.7774 126.979 75.7706 124.084 74.9564Z" fill="#475569"/>
<path d="M101.913 85.1966C101.708 85.1982 101.503 85.1703 101.306 85.1138C100.728 84.9474 100.239 84.5615 99.9422 84.0388C99.6456 83.5161 99.5654 82.8981 99.7187 82.317L101.559 75.6884C101.728 75.1157 102.115 74.6324 102.637 74.3425C103.159 74.0526 103.774 73.9794 104.35 74.1387C104.925 74.298 105.415 74.6769 105.714 75.1939C106.013 75.711 106.096 76.3246 105.947 76.9028L104.107 83.5314C103.97 84.0086 103.682 84.4287 103.287 84.7288C102.891 85.0289 102.409 85.193 101.913 85.1966Z" fill="white"/>
<path d="M93.9872 112.921C93.8627 112.922 93.7387 112.905 93.6192 112.87C93.2725 112.77 92.9787 112.539 92.8007 112.225C92.6227 111.911 92.5747 111.54 92.667 111.191L94.507 104.567C94.531 104.37 94.5972 104.181 94.7011 104.012C94.805 103.843 94.9442 103.698 95.1091 103.587C95.274 103.477 95.4607 103.403 95.6566 103.372C95.8526 103.34 96.053 103.351 96.2443 103.404C96.4356 103.457 96.6132 103.55 96.7651 103.678C96.917 103.806 97.0395 103.965 97.1244 104.144C97.2092 104.324 97.2544 104.519 97.2567 104.718C97.2591 104.916 97.2187 105.113 97.1382 105.294L95.2982 111.918C95.2169 112.204 95.0454 112.456 94.8091 112.637C94.5729 112.818 94.2846 112.917 93.9872 112.921Z" fill="white"/>
<path d="M108.805 88.9824C108.654 88.9839 108.506 88.9351 108.386 88.8436C108.266 88.7522 108.179 88.6233 108.14 88.4773C108.101 88.3313 108.112 88.1765 108.171 88.0373C108.229 87.898 108.333 87.7822 108.464 87.7082L114.444 84.318C114.601 84.2327 114.785 84.212 114.957 84.2601C115.128 84.3082 115.275 84.4213 115.364 84.5756C115.452 84.7318 115.474 84.9164 115.426 85.0889C115.378 85.2613 115.263 85.4076 115.107 85.4956L109.127 88.8858C109.029 88.9435 108.918 88.9767 108.805 88.9824Z" fill="white"/>
<path d="M82.9531 104.535C82.6 104.537 82.2562 104.422 81.9758 104.207C81.6954 103.993 81.4943 103.691 81.4042 103.35C81.3141 103.008 81.3401 102.646 81.4781 102.321C81.6161 101.996 81.8583 101.726 82.1665 101.554L88.1465 98.164C88.5083 98.0027 88.9171 97.9816 89.2935 98.105C89.67 98.2283 89.9871 98.4873 90.1832 98.8314C90.3794 99.1755 90.4406 99.5803 90.3549 99.9671C90.2693 100.354 90.0428 100.695 89.7197 100.924L83.7397 104.314C83.5007 104.454 83.2298 104.53 82.9531 104.535Z" fill="white"/>
<path d="M116.496 99.7188C116.414 99.719 116.332 99.7082 116.252 99.6866L109.628 97.8466C109.424 97.7588 109.259 97.6002 109.163 97.4001C109.067 97.2 109.046 96.9719 109.105 96.7578C109.164 96.5438 109.298 96.3582 109.483 96.2354C109.668 96.1125 109.891 96.0607 110.111 96.0894L116.74 97.9294C116.942 97.9982 117.114 98.1351 117.226 98.3166C117.338 98.4981 117.384 98.713 117.355 98.9245C117.326 99.136 117.225 99.3308 117.068 99.4757C116.911 99.6207 116.709 99.7066 116.496 99.7188Z" fill="white"/>
<path d="M87.8609 92.6992C87.6962 92.7001 87.5322 92.6785 87.3733 92.6348L80.7493 90.7948C80.3447 90.6168 80.0178 90.299 79.8282 89.8997C79.6386 89.5004 79.5991 89.0462 79.717 88.6202C79.8348 88.1941 80.102 87.8248 80.4698 87.5796C80.8376 87.3344 81.2814 87.2298 81.7199 87.285L88.3439 89.125C88.745 89.2643 89.0856 89.538 89.3079 89.8997C89.5302 90.2614 89.6206 90.6888 89.5637 91.1095C89.5069 91.5303 89.3063 91.9184 88.9959 92.2081C88.6856 92.4978 88.2846 92.6713 87.8609 92.6992Z" fill="white"/>
<path d="M107.881 110.98C107.68 110.979 107.483 110.926 107.309 110.825C107.135 110.724 106.991 110.579 106.892 110.405L103.502 104.42C103.425 104.29 103.375 104.146 103.354 103.996C103.334 103.847 103.343 103.694 103.382 103.549C103.421 103.403 103.489 103.266 103.582 103.147C103.674 103.027 103.789 102.928 103.921 102.853C104.052 102.779 104.197 102.732 104.347 102.714C104.497 102.696 104.649 102.709 104.794 102.751C104.94 102.792 105.075 102.863 105.193 102.957C105.31 103.052 105.408 103.169 105.48 103.302L108.865 109.282C108.94 109.412 108.988 109.555 109.006 109.703C109.025 109.852 109.014 110.002 108.974 110.146C108.935 110.291 108.867 110.425 108.775 110.543C108.682 110.661 108.568 110.759 108.437 110.832C108.268 110.929 108.076 110.98 107.881 110.98Z" fill="white"/>
<path d="M93.2431 86.02C92.8802 86.0205 92.5236 85.9245 92.21 85.7418C91.8964 85.5591 91.637 85.2963 91.4584 84.9804L88.0728 79.0004C87.9402 78.7663 87.855 78.5084 87.822 78.2414C87.7891 77.9744 87.8091 77.7035 87.8809 77.4442C87.9526 77.185 88.0748 76.9424 88.2403 76.7303C88.4058 76.5182 88.6115 76.3408 88.8455 76.2082C89.0796 76.0756 89.3375 75.9904 89.6045 75.9575C89.8715 75.9246 90.1424 75.9445 90.4017 76.0163C90.661 76.0881 90.9036 76.2102 91.1157 76.3757C91.3278 76.5412 91.5052 76.7469 91.6378 76.981L95.0234 82.961C95.1561 83.1947 95.2413 83.4522 95.2743 83.7189C95.3073 83.9856 95.2873 84.2562 95.2155 84.5152C95.1437 84.7741 95.0215 85.0164 94.8559 85.228C94.6904 85.4397 94.4846 85.6166 94.2505 85.7486C93.9446 85.9263 93.597 86.02 93.2431 86.02Z" fill="white"/>
<path d="M127.15 98.3894L123.203 98.2468L125.112 102.847C125.112 102.847 128.502 102.221 128.374 100.39L127.15 98.3894Z" fill="#FFB573"/>
<path d="M120.557 100.142L121.509 103.652L125.115 102.838L123.202 98.2468L120.557 100.142Z" fill="#FFB573"/>
</svg>
