<svg width="42" height="42" viewBox="0 0 42 42" fill="none" xmlns="http://www.w3.org/2000/svg">
<path d="M30.835 18.8125C30.0825 18.8125 29.4875 18.2 29.4875 17.465C29.4875 16.8175 28.84 15.47 27.755 14.2975C26.6875 13.16 25.515 12.495 24.535 12.495C23.7825 12.495 23.1875 11.8825 23.1875 11.1475C23.1875 10.4125 23.8 9.79999 24.535 9.79999C26.285 9.79999 28.1225 10.745 29.7325 12.4425C31.2375 14.035 32.2 16.0125 32.2 17.4475C32.2 18.2 31.5875 18.8125 30.835 18.8125Z" fill="#10B981"/>
<path d="M37.1526 18.8125C36.4001 18.8125 35.8051 18.2 35.8051 17.465C35.8051 11.2525 30.7476 6.2125 24.5526 6.2125C23.8001 6.2125 23.2051 5.6 23.2051 4.865C23.2051 4.13 23.8001 3.5 24.5351 3.5C32.2351 3.5 38.5001 9.765 38.5001 17.465C38.5001 18.2 37.8876 18.8125 37.1526 18.8125Z" fill="#10B981"/>
<path opacity="0.4" d="M20.6325 24.8675L14.91 30.59C14.28 30.03 13.6675 29.4525 13.0725 28.8575C11.27 27.0375 9.6425 25.13 8.19 23.135C6.755 21.14 5.6 19.145 4.76 17.1675C3.92 15.1725 3.5 13.265 3.5 11.445C3.5 10.255 3.71 9.1175 4.13 8.0675C4.55 7 5.215 6.02 6.1425 5.145C7.2625 4.0425 8.4875 3.5 9.7825 3.5C10.2725 3.5 10.7625 3.605 11.2 3.815C11.655 4.025 12.0575 4.34 12.3725 4.795L16.4325 10.5175C16.7475 10.955 16.975 11.3575 17.1325 11.7425C17.29 12.11 17.3775 12.4775 17.3775 12.81C17.3775 13.23 17.255 13.65 17.01 14.0525C16.7825 14.455 16.45 14.875 16.03 15.295L14.7 16.6775C14.5075 16.87 14.42 17.0975 14.42 17.3775C14.42 17.5175 14.4375 17.64 14.4725 17.78C14.525 17.92 14.5775 18.025 14.6125 18.13C14.9275 18.7075 15.47 19.46 16.24 20.37C17.0275 21.28 17.8675 22.2075 18.7775 23.135C19.4075 23.7475 20.02 24.3425 20.6325 24.8675Z" fill="#10B981"/>
<path d="M38.4483 32.0775C38.4483 32.5675 38.3608 33.075 38.1858 33.565C38.1333 33.705 38.0808 33.845 38.0108 33.985C37.7133 34.615 37.3283 35.21 36.8208 35.77C35.9633 36.715 35.0183 37.3975 33.9508 37.835C33.9333 37.835 33.9158 37.8525 33.8983 37.8525C32.8658 38.2725 31.7458 38.5 30.5383 38.5C28.7533 38.5 26.8458 38.08 24.8333 37.2225C22.8208 36.365 20.8083 35.21 18.8133 33.7575C18.1308 33.25 17.4483 32.7425 16.8008 32.2L22.5233 26.4775C23.0133 26.845 23.4508 27.125 23.8183 27.3175C23.9058 27.3525 24.0108 27.405 24.1333 27.4575C24.2733 27.51 24.4133 27.5275 24.5708 27.5275C24.8683 27.5275 25.0958 27.4225 25.2883 27.23L26.6183 25.9175C27.0558 25.48 27.4758 25.1475 27.8783 24.9375C28.2808 24.6925 28.6833 24.57 29.1208 24.57C29.4533 24.57 29.8033 24.64 30.1883 24.7975C30.5733 24.955 30.9758 25.1825 31.4133 25.48L37.2058 29.5925C37.6608 29.9075 37.9758 30.275 38.1683 30.7125C38.3433 31.15 38.4483 31.5875 38.4483 32.0775Z" fill="#10B981"/>
</svg>
