<svg width="50" height="50" viewBox="0 0 50 50" fill="none" xmlns="http://www.w3.org/2000/svg">
<rect width="50" height="50" rx="25" fill="white" fill-opacity="0.1"/>
<rect x="0.5" y="0.5" width="49" height="49" rx="24.5" stroke="white" stroke-opacity="0.05"/>
<path fill-rule="evenodd" clip-rule="evenodd" d="M17.7248 19.0192C17.0731 19.6243 16.6367 20.6061 16.6367 22.1462V28.8545C16.6367 30.3945 17.0731 31.3763 17.7248 31.9814C18.386 32.5954 19.3823 32.9274 20.7096 32.9274H30.293C31.6203 32.9274 32.6165 32.5954 33.2779 31.9814C33.9295 31.3763 34.3659 30.3945 34.3659 28.8545V22.1462C34.3659 20.6061 33.9295 19.6243 33.2779 19.0192C32.6165 18.4052 31.6203 18.0732 30.293 18.0732H20.7096C19.3823 18.0732 18.386 18.4052 17.7248 19.0192ZM16.7466 17.9658C17.7624 17.0226 19.162 16.6357 20.7096 16.6357H30.293C31.8407 16.6357 33.2402 17.0226 34.256 17.9658C35.2815 18.918 35.8034 20.3321 35.8034 22.1462V28.8545C35.8034 30.6686 35.2815 32.0826 34.256 33.0348C33.2402 33.9781 31.8407 34.3649 30.293 34.3649H20.7096C19.162 34.3649 17.7624 33.9781 16.7466 33.0348C15.7211 32.0826 15.1992 30.6686 15.1992 28.8545V22.1462C15.1992 20.3321 15.7211 18.918 16.7466 17.9658Z" fill="#F1F5F9"/>
<path fill-rule="evenodd" clip-rule="evenodd" d="M32.5571 21.0059C32.7999 21.32 32.742 21.7714 32.4279 22.0141L27.112 26.1218C26.1628 26.8551 24.8383 26.8551 23.8892 26.1218L18.5733 22.0141C18.2591 21.7714 18.2013 21.32 18.444 21.0059C18.6867 20.6918 19.1381 20.6339 19.4522 20.8766L24.7681 24.9842C25.1995 25.3177 25.8016 25.3177 26.233 24.9842L31.549 20.8766C31.8631 20.6339 32.3145 20.6918 32.5571 21.0059Z" fill="#F1F5F9"/>
</svg>
