<svg width="50" height="50" viewBox="0 0 50 50" fill="none" xmlns="http://www.w3.org/2000/svg">
<rect width="50" height="50" rx="25" fill="white" fill-opacity="0.1"/>
<rect x="0.5" y="0.5" width="49" height="49" rx="24.5" stroke="white" stroke-opacity="0.05"/>
<path d="M25.451 14.7074C26.5764 14.6902 27.6936 14.6991 28.8101 14.6902C28.8472 16.0865 29.4137 17.3432 30.315 18.2741L30.3137 18.2727C31.2837 19.1466 32.546 19.7131 33.9375 19.8093L33.9567 19.8107V23.2729C32.6422 23.2399 31.4061 22.9367 30.2917 22.4156L30.348 22.439C29.809 22.1798 29.3532 21.9137 28.9201 21.6167L28.9558 21.6401C28.9476 24.1488 28.9641 26.6575 28.9387 29.1572C28.8678 30.4312 28.4443 31.5931 27.7651 32.5631L27.7788 32.5418C26.6431 34.1684 24.8033 35.2361 22.7113 35.2994H22.7017C22.6171 35.3035 22.5174 35.3056 22.417 35.3056C21.2277 35.3056 20.116 34.9742 19.1686 34.3987L19.1961 34.4146C17.4718 33.3771 16.2825 31.602 16.0625 29.5374L16.0597 29.5092C16.0425 29.0796 16.0343 28.6499 16.0515 28.2291C16.3883 24.9436 19.1411 22.4019 22.4872 22.4019C22.8632 22.4019 23.2317 22.4342 23.5899 22.4954L23.5514 22.4899C23.5686 23.7611 23.517 25.0329 23.517 26.3041C23.2262 26.1989 22.8907 26.1377 22.5408 26.1377C21.2565 26.1377 20.1641 26.9586 19.7598 28.1047L19.7537 28.1253C19.6622 28.4189 19.6093 28.7564 19.6093 29.1057C19.6093 29.2473 19.6182 29.3876 19.6347 29.5251L19.6333 29.5086C19.8616 30.9152 21.0675 31.9767 22.5215 31.9767C22.5635 31.9767 22.6047 31.976 22.646 31.9739H22.6398C23.6456 31.9437 24.5187 31.4026 25.0124 30.6031L25.0192 30.5907C25.2028 30.3349 25.3286 30.0256 25.3705 29.6894L25.3712 29.6797C25.4572 28.1418 25.4228 26.6128 25.431 25.0749C25.4393 21.6126 25.4228 18.1586 25.4482 14.7053L25.451 14.7074Z" fill="#F1F5F9"/>
</svg>
