<svg width="50" height="50" viewBox="0 0 50 50" fill="none" xmlns="http://www.w3.org/2000/svg">
<rect width="50" height="50" rx="25" fill="white" fill-opacity="0.1"/>
<rect x="0.5" y="0.5" width="49" height="49" rx="24.5" stroke="white" stroke-opacity="0.05"/>
<g clip-path="url(#clip0_2256_707)">
<mask id="mask0_2256_707" style="mask-type:luminance" maskUnits="userSpaceOnUse" x="14" y="14" width="22" height="22">
<path d="M14 14H36V36H14V14Z" fill="white"/>
</mask>
<g mask="url(#mask0_2256_707)">
<path d="M35.1407 25.001C35.1386 25.9053 35.1284 26.8097 35.116 27.7139C35.101 28.805 35.0842 29.8965 34.8106 30.9688C34.5237 32.0933 33.9578 33.0631 33.0773 33.781C32.1496 34.5376 31.0282 34.9353 29.8178 35.0089C28.2125 35.1065 26.6065 35.1451 25.0005 35.1413C23.3945 35.1451 21.7885 35.1065 20.1833 35.0089C18.9729 34.9353 17.8515 34.5376 16.9238 33.781C16.0433 33.0631 15.4774 32.0933 15.1905 30.9688C14.9169 29.8965 14.9 28.805 14.8851 27.7139C14.8727 26.8097 14.8625 25.9053 14.8604 25.001C14.8625 24.0967 14.8727 23.1923 14.8851 22.288C14.9 21.197 14.9169 20.1055 15.1905 19.0332C15.4774 17.9087 16.0433 16.9389 16.9238 16.2209C17.8515 15.4643 18.9729 15.0667 20.1833 14.993C21.7885 14.8954 23.3945 14.8568 25.0005 14.8606C26.6065 14.8568 28.2125 14.8954 29.8178 14.993C31.0282 15.0667 32.1496 15.4643 33.0773 16.2209C33.9578 16.9389 34.5237 17.9087 34.8106 19.0332C35.0842 20.1055 35.101 21.197 35.116 22.288C35.1284 23.1923 35.1386 24.0967 35.1407 25.001Z" stroke="#F1F5F9" stroke-width="1.84895" stroke-miterlimit="10"/>
<path d="M29.4688 25.0007C29.4688 27.4925 27.4488 29.5125 24.957 29.5125C22.4653 29.5125 20.4453 27.4925 20.4453 25.0007C20.4453 22.509 22.4653 20.489 24.957 20.489C27.4488 20.489 29.4688 22.509 29.4688 25.0007Z" stroke="#F1F5F9" stroke-width="1.84895" stroke-miterlimit="10"/>
<path d="M32.2197 19.1997C32.2197 19.9116 31.6426 20.4888 30.9307 20.4888C30.2188 20.4888 29.6416 19.9116 29.6416 19.1997C29.6416 18.4878 30.2188 17.9106 30.9307 17.9106C31.6426 17.9106 32.2197 18.4878 32.2197 19.1997Z" fill="#F1F5F9"/>
</g>
</g>
<defs>
<clipPath id="clip0_2256_707">
<rect width="22" height="22" fill="white" transform="translate(14 14)"/>
</clipPath>
</defs>
</svg>
