<svg width="812" height="67" viewBox="0 0 812 67" fill="none" xmlns="http://www.w3.org/2000/svg">
<g clip-path="url(#clip0_35_1232)">
<rect width="812" height="67" fill="black"/>
<rect x="-670.539" width="1483.08" height="67" fill="black"/>
<path d="M-73.87 44V22.76H-69.01V31.28H-60.55V22.76H-55.69V44H-60.55V35.75H-69.01V44H-73.87ZM-42.3986 44.24C-44.4986 44.24 -46.2286 43.86 -47.5886 43.1C-48.9486 42.34 -49.9586 41.22 -50.6186 39.74C-51.2586 38.26 -51.5786 36.46 -51.5786 34.34V22.76H-46.7186V34.61C-46.7186 35.47 -46.5886 36.29 -46.3286 37.07C-46.0686 37.85 -45.6186 38.49 -44.9786 38.99C-44.3386 39.47 -43.4586 39.71 -42.3386 39.71C-41.1986 39.71 -40.3386 39.46 -39.7586 38.96C-39.1586 38.46 -38.7486 37.82 -38.5286 37.04C-38.2886 36.26 -38.1686 35.45 -38.1686 34.61V22.76H-33.3086V34.34C-33.3086 36.44 -33.6286 38.23 -34.2686 39.71C-34.9086 41.19 -35.8986 42.32 -37.2386 43.1C-38.5786 43.86 -40.2986 44.24 -42.3986 44.24ZM-21.0623 44.24C-22.5823 44.24 -23.9923 44 -25.2923 43.52C-26.5923 43.02 -27.6723 42.25 -28.5323 41.21C-29.3723 40.15 -29.8923 38.8 -30.0923 37.16H-25.1723C-25.0123 37.78 -24.7223 38.28 -24.3023 38.66C-23.8623 39.04 -23.3323 39.32 -22.7123 39.5C-22.0923 39.66 -21.4323 39.74 -20.7323 39.74C-20.2523 39.74 -19.7723 39.69 -19.2923 39.59C-18.8123 39.47 -18.4123 39.27 -18.0923 38.99C-17.7723 38.71 -17.6123 38.32 -17.6123 37.82C-17.6123 37.44 -17.7023 37.14 -17.8823 36.92C-18.0623 36.68 -18.3223 36.49 -18.6623 36.35C-18.9823 36.19 -19.3823 36.05 -19.8623 35.93C-20.1623 35.85 -20.4723 35.78 -20.7923 35.72C-21.1123 35.66 -21.4223 35.59 -21.7223 35.51C-22.0223 35.43 -22.3223 35.34 -22.6223 35.24C-23.5223 35.02 -24.3823 34.77 -25.2023 34.49C-26.0223 34.19 -26.7523 33.81 -27.3923 33.35C-28.0123 32.89 -28.5023 32.29 -28.8623 31.55C-29.2223 30.81 -29.4023 29.89 -29.4023 28.79C-29.4023 27.73 -29.2223 26.83 -28.8623 26.09C-28.4823 25.33 -27.9823 24.72 -27.3623 24.26C-26.7223 23.78 -26.0323 23.42 -25.2923 23.18C-24.5323 22.92 -23.7823 22.74 -23.0423 22.64C-22.2823 22.54 -21.5823 22.49 -20.9423 22.49C-19.5223 22.49 -18.2623 22.75 -17.1623 23.27C-16.0423 23.79 -15.1423 24.56 -14.4623 25.58C-13.7623 26.58 -13.3423 27.82 -13.2023 29.3H-17.9123C-17.9923 28.78 -18.2023 28.35 -18.5423 28.01C-18.8623 27.67 -19.2823 27.41 -19.8023 27.23C-20.3023 27.05 -20.8823 26.96 -21.5423 26.96C-21.9423 26.96 -22.3323 27 -22.7123 27.08C-23.0723 27.14 -23.3923 27.24 -23.6723 27.38C-23.9323 27.52 -24.1523 27.71 -24.3323 27.95C-24.4923 28.17 -24.5723 28.45 -24.5723 28.79C-24.5723 29.15 -24.4523 29.46 -24.2123 29.72C-23.9723 29.96 -23.6323 30.17 -23.1923 30.35C-22.7323 30.53 -22.1723 30.71 -21.5123 30.89C-21.0523 31.05 -20.5823 31.18 -20.1023 31.28C-19.6023 31.36 -19.1223 31.47 -18.6623 31.61C-17.8223 31.81 -17.0523 32.05 -16.3523 32.33C-15.6323 32.59 -15.0023 32.93 -14.4623 33.35C-13.9223 33.75 -13.5023 34.29 -13.2023 34.97C-12.8823 35.63 -12.7223 36.47 -12.7223 37.49C-12.7223 38.73 -12.9523 39.78 -13.4123 40.64C-13.8723 41.48 -14.5023 42.17 -15.3023 42.71C-16.1023 43.25 -17.0023 43.64 -18.0023 43.88C-18.9823 44.12 -20.0023 44.24 -21.0623 44.24ZM-5.15195 44V27.26H-11.542V22.76H6.15805V27.26H-0.291952V44H-5.15195ZM8.45422 44V22.76H13.3142V39.53H23.7842V44H8.45422ZM26.4425 44V22.76H42.1025V27.26H31.3025V31.28H40.3925V35.6H31.3025V39.53H42.1025V44H26.4425Z" fill="#FEF08A"/>
<path d="M68.5 18L68.9344 32.2911L76.1679 19.8327L69.7036 32.6826L82.0792 24.911L70.1971 33.3759L84.8797 32.0714L70.3018 34.2121L83.9278 39.6737L69.9937 34.9998L79.4415 45.9762L69.3435 35.5584L72.4487 49.5351L68.5 35.76L64.5513 49.5351L67.6565 35.5584L57.5585 45.9762L67.0063 34.9998L53.0722 39.6737L66.6982 34.2121L52.1203 32.0714L66.8029 33.3759L54.9208 24.911L67.2964 32.6826L60.8321 19.8327L68.0656 32.2911L68.5 18Z" fill="#ECFCCB"/>
<path d="M94.13 44V22.76H98.99V31.28H107.45V22.76H112.31V44H107.45V35.75H98.99V44H94.13ZM125.601 44.24C123.501 44.24 121.771 43.86 120.411 43.1C119.051 42.34 118.041 41.22 117.381 39.74C116.741 38.26 116.421 36.46 116.421 34.34V22.76H121.281V34.61C121.281 35.47 121.411 36.29 121.671 37.07C121.931 37.85 122.381 38.49 123.021 38.99C123.661 39.47 124.541 39.71 125.661 39.71C126.801 39.71 127.661 39.46 128.241 38.96C128.841 38.46 129.251 37.82 129.471 37.04C129.711 36.26 129.831 35.45 129.831 34.61V22.76H134.691V34.34C134.691 36.44 134.371 38.23 133.731 39.71C133.091 41.19 132.101 42.32 130.761 43.1C129.421 43.86 127.701 44.24 125.601 44.24ZM146.938 44.24C145.418 44.24 144.008 44 142.708 43.52C141.408 43.02 140.328 42.25 139.468 41.21C138.628 40.15 138.108 38.8 137.908 37.16H142.828C142.988 37.78 143.278 38.28 143.698 38.66C144.138 39.04 144.668 39.32 145.288 39.5C145.908 39.66 146.568 39.74 147.268 39.74C147.748 39.74 148.228 39.69 148.708 39.59C149.188 39.47 149.588 39.27 149.908 38.99C150.228 38.71 150.388 38.32 150.388 37.82C150.388 37.44 150.298 37.14 150.118 36.92C149.938 36.68 149.678 36.49 149.338 36.35C149.018 36.19 148.618 36.05 148.138 35.93C147.838 35.85 147.528 35.78 147.208 35.72C146.888 35.66 146.578 35.59 146.278 35.51C145.978 35.43 145.678 35.34 145.378 35.24C144.478 35.02 143.618 34.77 142.798 34.49C141.978 34.19 141.248 33.81 140.608 33.35C139.988 32.89 139.498 32.29 139.138 31.55C138.778 30.81 138.598 29.89 138.598 28.79C138.598 27.73 138.778 26.83 139.138 26.09C139.518 25.33 140.018 24.72 140.638 24.26C141.278 23.78 141.968 23.42 142.708 23.18C143.468 22.92 144.218 22.74 144.958 22.64C145.718 22.54 146.418 22.49 147.058 22.49C148.478 22.49 149.738 22.75 150.838 23.27C151.958 23.79 152.858 24.56 153.538 25.58C154.238 26.58 154.658 27.82 154.798 29.3H150.088C150.008 28.78 149.798 28.35 149.458 28.01C149.138 27.67 148.718 27.41 148.198 27.23C147.698 27.05 147.118 26.96 146.458 26.96C146.058 26.96 145.668 27 145.288 27.08C144.928 27.14 144.608 27.24 144.328 27.38C144.068 27.52 143.848 27.71 143.668 27.95C143.508 28.17 143.428 28.45 143.428 28.79C143.428 29.15 143.548 29.46 143.788 29.72C144.028 29.96 144.368 30.17 144.808 30.35C145.268 30.53 145.828 30.71 146.488 30.89C146.948 31.05 147.418 31.18 147.898 31.28C148.398 31.36 148.878 31.47 149.338 31.61C150.178 31.81 150.948 32.05 151.648 32.33C152.368 32.59 152.998 32.93 153.538 33.35C154.078 33.75 154.498 34.29 154.798 34.97C155.118 35.63 155.278 36.47 155.278 37.49C155.278 38.73 155.048 39.78 154.588 40.64C154.128 41.48 153.498 42.17 152.698 42.71C151.898 43.25 150.998 43.64 149.998 43.88C149.018 44.12 147.998 44.24 146.938 44.24ZM162.848 44V27.26H156.458V22.76H174.158V27.26H167.708V44H162.848ZM176.454 44V22.76H181.314V39.53H191.784V44H176.454ZM194.443 44V22.76H210.103V27.26H199.303V31.28H208.393V35.6H199.303V39.53H210.103V44H194.443Z" fill="#FEF08A"/>
<path d="M236.5 18L236.934 32.2911L244.168 19.8327L237.704 32.6826L250.079 24.911L238.197 33.3759L252.88 32.0714L238.302 34.2121L251.928 39.6737L237.994 34.9998L247.442 45.9762L237.343 35.5584L240.449 49.5351L236.5 35.76L232.551 49.5351L235.657 35.5584L225.558 45.9762L235.006 34.9998L221.072 39.6737L234.698 34.2121L220.12 32.0714L234.803 33.3759L222.921 24.911L235.296 32.6826L228.832 19.8327L236.066 32.2911L236.5 18Z" fill="#ECFCCB"/>
<path d="M262.13 44V22.76H266.99V31.28H275.45V22.76H280.31V44H275.45V35.75H266.99V44H262.13ZM293.601 44.24C291.501 44.24 289.771 43.86 288.411 43.1C287.051 42.34 286.041 41.22 285.381 39.74C284.741 38.26 284.421 36.46 284.421 34.34V22.76H289.281V34.61C289.281 35.47 289.411 36.29 289.671 37.07C289.931 37.85 290.381 38.49 291.021 38.99C291.661 39.47 292.541 39.71 293.661 39.71C294.801 39.71 295.661 39.46 296.241 38.96C296.841 38.46 297.251 37.82 297.471 37.04C297.711 36.26 297.831 35.45 297.831 34.61V22.76H302.691V34.34C302.691 36.44 302.371 38.23 301.731 39.71C301.091 41.19 300.101 42.32 298.761 43.1C297.421 43.86 295.701 44.24 293.601 44.24ZM314.938 44.24C313.418 44.24 312.008 44 310.708 43.52C309.408 43.02 308.328 42.25 307.468 41.21C306.628 40.15 306.108 38.8 305.908 37.16H310.828C310.988 37.78 311.278 38.28 311.698 38.66C312.138 39.04 312.668 39.32 313.288 39.5C313.908 39.66 314.568 39.74 315.268 39.74C315.748 39.74 316.228 39.69 316.708 39.59C317.188 39.47 317.588 39.27 317.908 38.99C318.228 38.71 318.388 38.32 318.388 37.82C318.388 37.44 318.298 37.14 318.118 36.92C317.938 36.68 317.678 36.49 317.338 36.35C317.018 36.19 316.618 36.05 316.138 35.93C315.838 35.85 315.528 35.78 315.208 35.72C314.888 35.66 314.578 35.59 314.278 35.51C313.978 35.43 313.678 35.34 313.378 35.24C312.478 35.02 311.618 34.77 310.798 34.49C309.978 34.19 309.248 33.81 308.608 33.35C307.988 32.89 307.498 32.29 307.138 31.55C306.778 30.81 306.598 29.89 306.598 28.79C306.598 27.73 306.778 26.83 307.138 26.09C307.518 25.33 308.018 24.72 308.638 24.26C309.278 23.78 309.968 23.42 310.708 23.18C311.468 22.92 312.218 22.74 312.958 22.64C313.718 22.54 314.418 22.49 315.058 22.49C316.478 22.49 317.738 22.75 318.838 23.27C319.958 23.79 320.858 24.56 321.538 25.58C322.238 26.58 322.658 27.82 322.798 29.3H318.088C318.008 28.78 317.798 28.35 317.458 28.01C317.138 27.67 316.718 27.41 316.198 27.23C315.698 27.05 315.118 26.96 314.458 26.96C314.058 26.96 313.668 27 313.288 27.08C312.928 27.14 312.608 27.24 312.328 27.38C312.068 27.52 311.848 27.71 311.668 27.95C311.508 28.17 311.428 28.45 311.428 28.79C311.428 29.15 311.548 29.46 311.788 29.72C312.028 29.96 312.368 30.17 312.808 30.35C313.268 30.53 313.828 30.71 314.488 30.89C314.948 31.05 315.418 31.18 315.898 31.28C316.398 31.36 316.878 31.47 317.338 31.61C318.178 31.81 318.948 32.05 319.648 32.33C320.368 32.59 320.998 32.93 321.538 33.35C322.078 33.75 322.498 34.29 322.798 34.97C323.118 35.63 323.278 36.47 323.278 37.49C323.278 38.73 323.048 39.78 322.588 40.64C322.128 41.48 321.498 42.17 320.698 42.71C319.898 43.25 318.998 43.64 317.998 43.88C317.018 44.12 315.998 44.24 314.938 44.24ZM330.848 44V27.26H324.458V22.76H342.158V27.26H335.708V44H330.848ZM344.454 44V22.76H349.314V39.53H359.784V44H344.454ZM362.443 44V22.76H378.103V27.26H367.303V31.28H376.393V35.6H367.303V39.53H378.103V44H362.443Z" fill="#FEF08A"/>
<path d="M404.5 18L404.934 32.2911L412.168 19.8327L405.704 32.6826L418.079 24.911L406.197 33.3759L420.88 32.0714L406.302 34.2121L419.928 39.6737L405.994 34.9998L415.442 45.9762L405.343 35.5584L408.449 49.5351L404.5 35.76L400.551 49.5351L403.657 35.5584L393.558 45.9762L403.006 34.9998L389.072 39.6737L402.698 34.2121L388.12 32.0714L402.803 33.3759L390.921 24.911L403.296 32.6826L396.832 19.8327L404.066 32.2911L404.5 18Z" fill="#ECFCCB"/>
<path d="M430.13 44V22.76H434.99V31.28H443.45V22.76H448.31V44H443.45V35.75H434.99V44H430.13ZM461.601 44.24C459.501 44.24 457.771 43.86 456.411 43.1C455.051 42.34 454.041 41.22 453.381 39.74C452.741 38.26 452.421 36.46 452.421 34.34V22.76H457.281V34.61C457.281 35.47 457.411 36.29 457.671 37.07C457.931 37.85 458.381 38.49 459.021 38.99C459.661 39.47 460.541 39.71 461.661 39.71C462.801 39.71 463.661 39.46 464.241 38.96C464.841 38.46 465.251 37.82 465.471 37.04C465.711 36.26 465.831 35.45 465.831 34.61V22.76H470.691V34.34C470.691 36.44 470.371 38.23 469.731 39.71C469.091 41.19 468.101 42.32 466.761 43.1C465.421 43.86 463.701 44.24 461.601 44.24ZM482.938 44.24C481.418 44.24 480.008 44 478.708 43.52C477.408 43.02 476.328 42.25 475.468 41.21C474.628 40.15 474.108 38.8 473.908 37.16H478.828C478.988 37.78 479.278 38.28 479.698 38.66C480.138 39.04 480.668 39.32 481.288 39.5C481.908 39.66 482.568 39.74 483.268 39.74C483.748 39.74 484.228 39.69 484.708 39.59C485.188 39.47 485.588 39.27 485.908 38.99C486.228 38.71 486.388 38.32 486.388 37.82C486.388 37.44 486.298 37.14 486.118 36.92C485.938 36.68 485.678 36.49 485.338 36.35C485.018 36.19 484.618 36.05 484.138 35.93C483.838 35.85 483.528 35.78 483.208 35.72C482.888 35.66 482.578 35.59 482.278 35.51C481.978 35.43 481.678 35.34 481.378 35.24C480.478 35.02 479.618 34.77 478.798 34.49C477.978 34.19 477.248 33.81 476.608 33.35C475.988 32.89 475.498 32.29 475.138 31.55C474.778 30.81 474.598 29.89 474.598 28.79C474.598 27.73 474.778 26.83 475.138 26.09C475.518 25.33 476.018 24.72 476.638 24.26C477.278 23.78 477.968 23.42 478.708 23.18C479.468 22.92 480.218 22.74 480.958 22.64C481.718 22.54 482.418 22.49 483.058 22.49C484.478 22.49 485.738 22.75 486.838 23.27C487.958 23.79 488.858 24.56 489.538 25.58C490.238 26.58 490.658 27.82 490.798 29.3H486.088C486.008 28.78 485.798 28.35 485.458 28.01C485.138 27.67 484.718 27.41 484.198 27.23C483.698 27.05 483.118 26.96 482.458 26.96C482.058 26.96 481.668 27 481.288 27.08C480.928 27.14 480.608 27.24 480.328 27.38C480.068 27.52 479.848 27.71 479.668 27.95C479.508 28.17 479.428 28.45 479.428 28.79C479.428 29.15 479.548 29.46 479.788 29.72C480.028 29.96 480.368 30.17 480.808 30.35C481.268 30.53 481.828 30.71 482.488 30.89C482.948 31.05 483.418 31.18 483.898 31.28C484.398 31.36 484.878 31.47 485.338 31.61C486.178 31.81 486.948 32.05 487.648 32.33C488.368 32.59 488.998 32.93 489.538 33.35C490.078 33.75 490.498 34.29 490.798 34.97C491.118 35.63 491.278 36.47 491.278 37.49C491.278 38.73 491.048 39.78 490.588 40.64C490.128 41.48 489.498 42.17 488.698 42.71C487.898 43.25 486.998 43.64 485.998 43.88C485.018 44.12 483.998 44.24 482.938 44.24ZM498.848 44V27.26H492.458V22.76H510.158V27.26H503.708V44H498.848ZM512.454 44V22.76H517.314V39.53H527.784V44H512.454ZM530.443 44V22.76H546.103V27.26H535.303V31.28H544.393V35.6H535.303V39.53H546.103V44H530.443Z" fill="#FEF08A"/>
<path d="M572.5 18L572.934 32.2911L580.168 19.8327L573.704 32.6826L586.079 24.911L574.197 33.3759L588.88 32.0714L574.302 34.2121L587.928 39.6737L573.994 34.9998L583.442 45.9762L573.343 35.5584L576.449 49.5351L572.5 35.76L568.551 49.5351L571.657 35.5584L561.558 45.9762L571.006 34.9998L557.072 39.6737L570.698 34.2121L556.12 32.0714L570.803 33.3759L558.921 24.911L571.296 32.6826L564.832 19.8327L572.066 32.2911L572.5 18Z" fill="#ECFCCB"/>
<path d="M598.13 44V22.76H602.99V31.28H611.45V22.76H616.31V44H611.45V35.75H602.99V44H598.13ZM629.601 44.24C627.501 44.24 625.771 43.86 624.411 43.1C623.051 42.34 622.041 41.22 621.381 39.74C620.741 38.26 620.421 36.46 620.421 34.34V22.76H625.281V34.61C625.281 35.47 625.411 36.29 625.671 37.07C625.931 37.85 626.381 38.49 627.021 38.99C627.661 39.47 628.541 39.71 629.661 39.71C630.801 39.71 631.661 39.46 632.241 38.96C632.841 38.46 633.251 37.82 633.471 37.04C633.711 36.26 633.831 35.45 633.831 34.61V22.76H638.691V34.34C638.691 36.44 638.371 38.23 637.731 39.71C637.091 41.19 636.101 42.32 634.761 43.1C633.421 43.86 631.701 44.24 629.601 44.24ZM650.938 44.24C649.418 44.24 648.008 44 646.708 43.52C645.408 43.02 644.328 42.25 643.468 41.21C642.628 40.15 642.108 38.8 641.908 37.16H646.828C646.988 37.78 647.278 38.28 647.698 38.66C648.138 39.04 648.668 39.32 649.288 39.5C649.908 39.66 650.568 39.74 651.268 39.74C651.748 39.74 652.228 39.69 652.708 39.59C653.188 39.47 653.588 39.27 653.908 38.99C654.228 38.71 654.388 38.32 654.388 37.82C654.388 37.44 654.298 37.14 654.118 36.92C653.938 36.68 653.678 36.49 653.338 36.35C653.018 36.19 652.618 36.05 652.138 35.93C651.838 35.85 651.528 35.78 651.208 35.72C650.888 35.66 650.578 35.59 650.278 35.51C649.978 35.43 649.678 35.34 649.378 35.24C648.478 35.02 647.618 34.77 646.798 34.49C645.978 34.19 645.248 33.81 644.608 33.35C643.988 32.89 643.498 32.29 643.138 31.55C642.778 30.81 642.598 29.89 642.598 28.79C642.598 27.73 642.778 26.83 643.138 26.09C643.518 25.33 644.018 24.72 644.638 24.26C645.278 23.78 645.968 23.42 646.708 23.18C647.468 22.92 648.218 22.74 648.958 22.64C649.718 22.54 650.418 22.49 651.058 22.49C652.478 22.49 653.738 22.75 654.838 23.27C655.958 23.79 656.858 24.56 657.538 25.58C658.238 26.58 658.658 27.82 658.798 29.3H654.088C654.008 28.78 653.798 28.35 653.458 28.01C653.138 27.67 652.718 27.41 652.198 27.23C651.698 27.05 651.118 26.96 650.458 26.96C650.058 26.96 649.668 27 649.288 27.08C648.928 27.14 648.608 27.24 648.328 27.38C648.068 27.52 647.848 27.71 647.668 27.95C647.508 28.17 647.428 28.45 647.428 28.79C647.428 29.15 647.548 29.46 647.788 29.72C648.028 29.96 648.368 30.17 648.808 30.35C649.268 30.53 649.828 30.71 650.488 30.89C650.948 31.05 651.418 31.18 651.898 31.28C652.398 31.36 652.878 31.47 653.338 31.61C654.178 31.81 654.948 32.05 655.648 32.33C656.368 32.59 656.998 32.93 657.538 33.35C658.078 33.75 658.498 34.29 658.798 34.97C659.118 35.63 659.278 36.47 659.278 37.49C659.278 38.73 659.048 39.78 658.588 40.64C658.128 41.48 657.498 42.17 656.698 42.71C655.898 43.25 654.998 43.64 653.998 43.88C653.018 44.12 651.998 44.24 650.938 44.24ZM666.848 44V27.26H660.458V22.76H678.158V27.26H671.708V44H666.848ZM680.454 44V22.76H685.314V39.53H695.784V44H680.454ZM698.443 44V22.76H714.103V27.26H703.303V31.28H712.393V35.6H703.303V39.53H714.103V44H698.443Z" fill="#FEF08A"/>
<path d="M740.5 18L740.934 32.2911L748.168 19.8327L741.704 32.6826L754.079 24.911L742.197 33.3759L756.88 32.0714L742.302 34.2121L755.928 39.6737L741.994 34.9998L751.442 45.9762L741.343 35.5584L744.449 49.5351L740.5 35.76L736.551 49.5351L739.657 35.5584L729.558 45.9762L739.006 34.9998L725.072 39.6737L738.698 34.2121L724.12 32.0714L738.803 33.3759L726.921 24.911L739.296 32.6826L732.832 19.8327L740.066 32.2911L740.5 18Z" fill="#ECFCCB"/>
<path d="M766.13 44V22.76H770.99V31.28H779.45V22.76H784.31V44H779.45V35.75H770.99V44H766.13ZM797.601 44.24C795.501 44.24 793.771 43.86 792.411 43.1C791.051 42.34 790.041 41.22 789.381 39.74C788.741 38.26 788.421 36.46 788.421 34.34V22.76H793.281V34.61C793.281 35.47 793.411 36.29 793.671 37.07C793.931 37.85 794.381 38.49 795.021 38.99C795.661 39.47 796.541 39.71 797.661 39.71C798.801 39.71 799.661 39.46 800.241 38.96C800.841 38.46 801.251 37.82 801.471 37.04C801.711 36.26 801.831 35.45 801.831 34.61V22.76H806.691V34.34C806.691 36.44 806.371 38.23 805.731 39.71C805.091 41.19 804.101 42.32 802.761 43.1C801.421 43.86 799.701 44.24 797.601 44.24ZM818.938 44.24C817.418 44.24 816.008 44 814.708 43.52C813.408 43.02 812.328 42.25 811.468 41.21C810.628 40.15 810.108 38.8 809.908 37.16H814.828C814.988 37.78 815.278 38.28 815.698 38.66C816.138 39.04 816.668 39.32 817.288 39.5C817.908 39.66 818.568 39.74 819.268 39.74C819.748 39.74 820.228 39.69 820.708 39.59C821.188 39.47 821.588 39.27 821.908 38.99C822.228 38.71 822.388 38.32 822.388 37.82C822.388 37.44 822.298 37.14 822.118 36.92C821.938 36.68 821.678 36.49 821.338 36.35C821.018 36.19 820.618 36.05 820.138 35.93C819.838 35.85 819.528 35.78 819.208 35.72C818.888 35.66 818.578 35.59 818.278 35.51C817.978 35.43 817.678 35.34 817.378 35.24C816.478 35.02 815.618 34.77 814.798 34.49C813.978 34.19 813.248 33.81 812.608 33.35C811.988 32.89 811.498 32.29 811.138 31.55C810.778 30.81 810.598 29.89 810.598 28.79C810.598 27.73 810.778 26.83 811.138 26.09C811.518 25.33 812.018 24.72 812.638 24.26C813.278 23.78 813.968 23.42 814.708 23.18C815.468 22.92 816.218 22.74 816.958 22.64C817.718 22.54 818.418 22.49 819.058 22.49C820.478 22.49 821.738 22.75 822.838 23.27C823.958 23.79 824.858 24.56 825.538 25.58C826.238 26.58 826.658 27.82 826.798 29.3H822.088C822.008 28.78 821.798 28.35 821.458 28.01C821.138 27.67 820.718 27.41 820.198 27.23C819.698 27.05 819.118 26.96 818.458 26.96C818.058 26.96 817.668 27 817.288 27.08C816.928 27.14 816.608 27.24 816.328 27.38C816.068 27.52 815.848 27.71 815.668 27.95C815.508 28.17 815.428 28.45 815.428 28.79C815.428 29.15 815.548 29.46 815.788 29.72C816.028 29.96 816.368 30.17 816.808 30.35C817.268 30.53 817.828 30.71 818.488 30.89C818.948 31.05 819.418 31.18 819.898 31.28C820.398 31.36 820.878 31.47 821.338 31.61C822.178 31.81 822.948 32.05 823.648 32.33C824.368 32.59 824.998 32.93 825.538 33.35C826.078 33.75 826.498 34.29 826.798 34.97C827.118 35.63 827.278 36.47 827.278 37.49C827.278 38.73 827.048 39.78 826.588 40.64C826.128 41.48 825.498 42.17 824.698 42.71C823.898 43.25 822.998 43.64 821.998 43.88C821.018 44.12 819.998 44.24 818.938 44.24ZM834.848 44V27.26H828.458V22.76H846.158V27.26H839.708V44H834.848ZM848.454 44V22.76H853.314V39.53H863.784V44H848.454ZM866.443 44V22.76H882.103V27.26H871.303V31.28H880.393V35.6H871.303V39.53H882.103V44H866.443Z" fill="#FEF08A"/>
</g>
<defs>
<clipPath id="clip0_35_1232">
<rect width="812" height="67" fill="white"/>
</clipPath>
</defs>
</svg>
