<svg width="109" height="28" viewBox="0 0 109 28" fill="none" xmlns="http://www.w3.org/2000/svg">
<path d="M94.9735 27.7846C92.2142 27.7846 89.7998 27.2097 87.7303 26.06C85.6609 24.9103 84.0513 23.3007 82.9016 21.2313C81.7774 19.1362 81.2153 16.7091 81.2153 13.9498C81.2153 11.1138 81.803 8.66113 82.9782 6.59166C84.1535 4.49663 85.7886 2.87427 87.8836 1.72456C89.9787 0.574853 92.4058 0 95.1651 0C97.8989 0 100.3 0.562078 102.37 1.68624C104.439 2.8104 106.062 4.40721 107.237 6.47668C108.412 8.52061 109 10.9478 109 13.7582C109 16.5175 108.412 18.9574 107.237 21.078C106.087 23.173 104.452 24.8209 102.332 26.0217C100.237 27.197 97.7839 27.7846 94.9735 27.7846ZM95.1268 21.2313C96.7619 21.2313 98.0777 20.8608 99.0741 20.1199C100.071 19.3534 100.786 18.4081 101.22 17.2839C101.68 16.1598 101.91 15.0484 101.91 13.9498C101.91 13.1322 101.782 12.3019 101.527 11.4588C101.297 10.5901 100.914 9.78529 100.377 9.04436C99.8661 8.30344 99.1763 7.70304 98.3076 7.24316C97.439 6.78328 96.3659 6.55333 95.0885 6.55333C93.4789 6.55333 92.1759 6.92379 91.1795 7.66472C90.1831 8.38009 89.4549 9.29986 88.995 10.424C88.5351 11.5482 88.3052 12.7107 88.3052 13.9115C88.3052 15.1123 88.5351 16.2747 88.995 17.3989C89.4804 18.5231 90.2214 19.4428 91.2178 20.1582C92.2397 20.8736 93.5427 21.2313 95.1268 21.2313Z" fill="white"/>
<path d="M65.6603 27.7846C62.9521 27.7846 60.5888 27.2225 58.5705 26.0984C56.5776 24.9487 55.0319 23.3263 53.9333 21.2313C52.8347 19.1362 52.2854 16.658 52.2854 13.7965C52.2854 11.6504 52.592 9.73419 53.2052 8.04795C53.8439 6.33617 54.7509 4.87987 55.9261 3.67906C57.1014 2.47826 58.5066 1.57127 60.1417 0.958089C61.8024 0.319363 63.642 0 65.6603 0C67.7554 0 69.6715 0.357687 71.4089 1.07306C73.1718 1.76288 74.628 2.84872 75.7778 4.33056C76.953 5.78686 77.6939 7.65194 78.0005 9.92581H71.1406C70.9873 9.10824 70.6807 8.45674 70.2208 7.9713C69.7865 7.48587 69.2244 7.12819 68.5346 6.89825C67.8703 6.6683 67.1039 6.55333 66.2352 6.55333C64.9577 6.55333 63.8847 6.7705 63.016 7.20483C62.1473 7.63917 61.4447 8.2268 60.9082 8.96772C60.3972 9.68309 60.0268 10.4879 59.7968 11.3821C59.5669 12.2508 59.4519 13.1322 59.4519 14.0264C59.4519 15.2272 59.6563 16.3897 60.0651 17.5139C60.4994 18.6125 61.1892 19.5067 62.1346 20.1965C63.1054 20.8864 64.4084 21.2313 66.0436 21.2313C66.8611 21.2313 67.6404 21.1291 68.3813 20.9247C69.1222 20.7203 69.7482 20.4009 70.2592 19.9666C70.7701 19.5067 71.0895 18.9191 71.2172 18.2037H64.8172V12.3785H78.4987V13.3749C78.4987 16.4153 78.0388 19.0085 77.1191 21.1546C76.1993 23.3007 74.7941 24.9487 72.9035 26.0984C71.0129 27.2225 68.5985 27.7846 65.6603 27.7846Z" fill="white"/>
<path d="M35.542 27.7846C32.7827 27.7846 30.3683 27.2097 28.2988 26.06C26.2293 24.9103 24.6198 23.3007 23.4701 21.2313C22.3459 19.1362 21.7838 16.7091 21.7838 13.9498C21.7838 11.1138 22.3714 8.66113 23.5467 6.59166C24.722 4.49663 26.3571 2.87427 28.4521 1.72456C30.5471 0.574853 32.9743 0 35.7336 0C38.4673 0 40.869 0.562078 42.9384 1.68624C45.0079 2.8104 46.6303 4.40721 47.8055 6.47668C48.9808 8.52061 49.5684 10.9478 49.5684 13.7582C49.5684 16.5175 48.9808 18.9574 47.8055 21.078C46.6558 23.173 45.0207 24.8209 42.9001 26.0217C40.8051 27.197 38.3524 27.7846 35.542 27.7846ZM35.6953 21.2313C37.3304 21.2313 38.6462 20.8608 39.6426 20.1199C40.639 19.3534 41.3544 18.4081 41.7887 17.2839C42.2486 16.1598 42.4785 15.0484 42.4785 13.9498C42.4785 13.1322 42.3508 12.3019 42.0953 11.4588C41.8654 10.5901 41.4821 9.78529 40.9456 9.04436C40.4346 8.30344 39.7448 7.70304 38.8761 7.24316C38.0075 6.78328 36.9344 6.55333 35.657 6.55333C34.0474 6.55333 32.7444 6.92379 31.7479 7.66472C30.7515 8.38009 30.0234 9.29986 29.5635 10.424C29.1036 11.5482 28.8737 12.7107 28.8737 13.9115C28.8737 15.1123 29.1036 16.2747 29.5635 17.3989C30.0489 18.5231 30.7899 19.4428 31.7863 20.1582C32.8082 20.8736 34.1112 21.2313 35.6953 21.2313Z" fill="white"/>
<path d="M0 27.4779V0.344788H6.93657V21.0778H19.9283V27.4779H0Z" fill="white"/>
</svg>
