<svg width="42" height="42" viewBox="0 0 42 42" fill="none" xmlns="http://www.w3.org/2000/svg">
<circle cx="21" cy="21" r="21" fill="#FFF7ED"/>
<path opacity="0.4" d="M26.98 20.79V24.79C26.98 25.05 26.97 25.3 26.94 25.54C26.71 28.24 25.12 29.58 22.19 29.58H21.79C21.54 29.58 21.3 29.7 21.15 29.9L19.95 31.5C19.42 32.21 18.56 32.21 18.03 31.5L16.83 29.9C16.7 29.73 16.41 29.58 16.19 29.58H15.79C12.6 29.58 11 28.79 11 24.79V20.79C11 17.86 12.35 16.27 15.04 16.04C15.28 16.01 15.53 16 15.79 16H22.19C25.38 16 26.98 17.6 26.98 20.79Z" fill="#F97316"/>
<path d="M18.9902 24C18.4302 24 17.9902 23.55 17.9902 23C17.9902 22.45 18.4402 22 18.9902 22C19.5402 22 19.9902 22.45 19.9902 23C19.9902 23.55 19.5502 24 18.9902 24Z" fill="#F97316"/>
<path d="M22.4902 24C21.9302 24 21.4902 23.55 21.4902 23C21.4902 22.45 21.9402 22 22.4902 22C23.0402 22 23.4902 22.45 23.4902 23C23.4902 23.55 23.0402 24 22.4902 24Z" fill="#F97316"/>
<path d="M15.5 24C14.94 24 14.5 23.55 14.5 23C14.5 22.45 14.95 22 15.5 22C16.05 22 16.5 22.45 16.5 23C16.5 23.55 16.05 24 15.5 24Z" fill="#F97316"/>
<path d="M30.9791 16.79V20.79C30.9791 23.73 29.6291 25.31 26.9391 25.54C26.9691 25.3 26.9791 25.05 26.9791 24.79V20.79C26.9791 17.6 25.3791 16 22.1891 16H15.7891C15.5291 16 15.2791 16.01 15.0391 16.04C15.2691 13.35 16.8591 12 19.7891 12H26.1891C29.3791 12 30.9791 13.6 30.9791 16.79Z" fill="#F97316"/>
</svg>
