<svg width="42" height="42" viewBox="0 0 42 42" fill="none" xmlns="http://www.w3.org/2000/svg">
<path opacity="0.4" d="M37.9053 18.27L36.1903 25.585C34.7203 31.9025 31.8153 34.4575 26.3553 33.9325C25.4803 33.8625 24.5353 33.705 23.5203 33.46L20.5803 32.76C13.2828 31.0275 11.0253 27.4225 12.7403 20.1075L14.4553 12.775C14.8053 11.2875 15.2253 9.99251 15.7503 8.92501C17.7978 4.69001 21.2803 3.55251 27.1253 4.93501L30.0478 5.61751C37.3803 7.33251 39.6203 10.955 37.9053 18.27Z" fill="#F97316"/>
<path d="M26.3541 33.9325C25.2691 34.6675 23.9041 35.28 22.2416 35.8225L19.4766 36.7325C12.5291 38.9725 8.87163 37.1 6.61413 30.1525L4.37413 23.24C2.13413 16.2925 3.98913 12.6175 10.9366 10.3775L13.7016 9.46749C14.4191 9.23999 15.1016 9.04749 15.7491 8.92499C15.2241 9.99249 14.8041 11.2875 14.4541 12.775L12.7391 20.1075C11.0241 27.4225 13.2816 31.0275 20.5791 32.76L23.5191 33.46C24.5341 33.705 25.4791 33.8625 26.3541 33.9325Z" fill="#F97316"/>
<path d="M30.6074 18.3925C30.5024 18.3925 30.3974 18.375 30.2749 18.3575L21.7874 16.205C21.0874 16.03 20.6674 15.3125 20.8424 14.6125C21.0174 13.9125 21.7349 13.4925 22.4349 13.6675L30.9224 15.82C31.6224 15.995 32.0424 16.7125 31.8674 17.4125C31.7274 17.99 31.1849 18.3925 30.6074 18.3925Z" fill="#F97316"/>
<path d="M25.48 24.3075C25.375 24.3075 25.27 24.29 25.1475 24.2725L20.055 22.9775C19.355 22.8025 18.935 22.085 19.11 21.385C19.285 20.685 20.0025 20.265 20.7025 20.44L25.795 21.735C26.495 21.91 26.915 22.6275 26.74 23.3275C26.6 23.9225 26.075 24.3075 25.48 24.3075Z" fill="#F97316"/>
</svg>
