<svg width="39" height="38" viewBox="0 0 39 38" fill="none" xmlns="http://www.w3.org/2000/svg">
<path d="M7.19119 20.0529C1.80879 21.747 -0.33788 24.788 0.0426826 29.3706C0.520192 35.1205 7.34945 36.147 13.0782 36.147C20.2235 36.147 30.4541 34.7338 34.1032 26.4058C36.9077 20.0056 35.3615 8.6176 32.0007 8.61761C28.64 8.61762 28.2162 12.3447 23.1702 15.3941C16.8627 19.2058 13.9192 17.9353 7.19119 20.0529Z" fill="#FED7AA"/>
<path d="M20.254 17.2108C20.0957 17.195 19.9057 17.195 19.7315 17.2108C15.9632 17.0842 12.9707 13.9967 12.9707 10.1967C12.9707 6.3175 16.1057 3.16666 20.0007 3.16666C23.8799 3.16666 27.0307 6.3175 27.0307 10.1967C27.0149 13.9967 24.0224 17.0842 20.254 17.2108Z" stroke="#292D32" stroke-width="2" stroke-linecap="round" stroke-linejoin="round"/>
<path d="M12.3366 23.0533C8.50497 25.6183 8.50497 29.7983 12.3366 32.3475C16.6908 35.2608 23.8316 35.2608 28.1858 32.3475C32.0175 29.7825 32.0175 25.6025 28.1858 23.0533C23.8475 20.1558 16.7066 20.1558 12.3366 23.0533Z" stroke="#292D32" stroke-width="2" stroke-linecap="round" stroke-linejoin="round"/>
</svg>
