<svg width="39" height="38" viewBox="0 0 39 38" fill="none" xmlns="http://www.w3.org/2000/svg">
<path d="M10.6326 21.0529C5.25019 22.747 3.10353 25.788 3.48409 30.3706C3.9616 36.1205 10.7909 37.147 16.5196 37.147C23.6649 37.147 33.8955 35.7338 37.5446 27.4058C40.3491 21.0056 38.8029 9.6176 35.4421 9.61761C32.0814 9.61762 31.6576 13.3447 26.6116 16.3941C20.3041 20.2058 17.3606 18.9353 10.6326 21.0529Z" fill="#FED7AA"/>
<path d="M34.2946 16.53L32.743 23.1483C31.413 28.8642 28.7846 31.1758 23.8446 30.7008C23.053 30.6375 22.198 30.495 21.2796 30.2733L18.6196 29.64C12.0171 28.0725 9.97463 24.8108 11.5263 18.1925L13.078 11.5583C13.3946 10.2125 13.7746 9.04083 14.2496 8.075C16.1021 4.24333 19.253 3.21417 24.5413 4.465L27.1855 5.0825C33.8196 6.63417 35.8463 9.91167 34.2946 16.53Z" stroke="#292D32" stroke-width="1.5" stroke-linecap="round" stroke-linejoin="round"/>
<path d="M23.8451 30.7008C22.8634 31.3658 21.6284 31.92 20.1242 32.4108L17.6226 33.2342C11.3367 35.2608 8.02755 33.5667 5.98505 27.2808L3.95839 21.0267C1.93172 14.7408 3.61005 11.4158 9.89589 9.38916L12.3976 8.56583C13.0467 8.36 13.6642 8.18583 14.2501 8.075C13.7751 9.04083 13.3951 10.2125 13.0784 11.5583L11.5267 18.1925C9.97505 24.8108 12.0176 28.0725 18.6201 29.64L21.2801 30.2733C22.1984 30.495 23.0534 30.6375 23.8451 30.7008Z" stroke="#292D32" stroke-width="1.5" stroke-linecap="round" stroke-linejoin="round"/>
<path d="M20.0137 13.5058L27.6928 15.4533" stroke="#292D32" stroke-width="1.5" stroke-linecap="round" stroke-linejoin="round"/>
<path d="M18.4609 19.6333L23.0526 20.805" stroke="#292D32" stroke-width="1.5" stroke-linecap="round" stroke-linejoin="round"/>
</svg>
