<svg width="55" height="36" viewBox="0 0 55 36" fill="none" xmlns="http://www.w3.org/2000/svg">
<rect width="55" height="36" rx="18" fill="#F4E2C3"/>
<path d="M18 15.5H13V20.5H18V15.5Z" stroke="#1E1E1E" stroke-width="0.9375" stroke-linecap="round" stroke-linejoin="round"/>
<path d="M11.125 24.25C12.1562 24.25 13 23.4062 13 22.375V20.5H11.125C10.0938 20.5 9.25 21.3437 9.25 22.375C9.25 23.4062 10.0938 24.25 11.125 24.25Z" stroke="#1E1E1E" stroke-width="0.9375" stroke-linecap="round" stroke-linejoin="round"/>
<path d="M11.125 15.5H13V13.625C13 12.5938 12.1562 11.75 11.125 11.75C10.0938 11.75 9.25 12.5938 9.25 13.625C9.25 14.6563 10.0938 15.5 11.125 15.5Z" stroke="#1E1E1E" stroke-width="0.9375" stroke-linecap="round" stroke-linejoin="round"/>
<path d="M18 15.5H19.875C20.9062 15.5 21.75 14.6563 21.75 13.625C21.75 12.5938 20.9062 11.75 19.875 11.75C18.8438 11.75 18 12.5938 18 13.625V15.5Z" stroke="#1E1E1E" stroke-width="0.9375" stroke-linecap="round" stroke-linejoin="round"/>
<path d="M19.875 24.25C20.9062 24.25 21.75 23.4062 21.75 22.375C21.75 21.3437 20.9062 20.5 19.875 20.5H18V22.375C18 23.4062 18.8438 24.25 19.875 24.25Z" stroke="#1E1E1E" stroke-width="0.9375" stroke-linecap="round" stroke-linejoin="round"/>
<path d="M29.724 23V20.018H26.742V18.968H29.724V16H30.774V18.968H33.742V20.018H30.774V23H29.724ZM38.1011 23V12.57H39.2211V18.66L38.9691 18.534L44.2191 12.57H45.6191L41.4051 17.358L41.4611 16.56L45.8711 23H44.5271L40.9711 17.862L39.2211 19.85V23H38.1011Z" fill="#1E1E1E"/>
</svg>
