<svg width="39" height="38" viewBox="0 0 39 38" fill="none" xmlns="http://www.w3.org/2000/svg">
<path d="M10.6326 21.0529C5.25019 22.747 3.10353 25.788 3.48409 30.3706C3.9616 36.1205 10.7909 37.147 16.5196 37.147C23.6649 37.147 33.8955 35.7338 37.5446 27.4058C40.3491 21.0056 38.8029 9.6176 35.4421 9.61761C32.0814 9.61762 31.6576 13.3447 26.6116 16.3941C20.3041 20.2058 17.3606 18.9353 10.6326 21.0529Z" fill="#FED7AA"/>
<path d="M29.685 22.3949C26.595 25.4699 22.17 26.4149 18.285 25.1999L11.22 32.2499C10.71 32.7749 9.70498 33.0899 8.98498 32.9849L5.71498 32.5349C4.63498 32.3849 3.62998 31.3649 3.46498 30.2849L3.01498 27.0149C2.90998 26.2949 3.25498 25.2899 3.74998 24.7799L10.8 17.7299C9.59998 13.8299 10.53 9.40492 13.62 6.32992C18.045 1.90492 25.23 1.90492 29.67 6.32992C34.11 10.7549 34.11 17.9699 29.685 22.3949Z" stroke="#292D32" stroke-width="2.25" stroke-miterlimit="10" stroke-linecap="round" stroke-linejoin="round"/>
<path d="M10.3359 26.235L13.7859 29.685" stroke="#292D32" stroke-width="2.25" stroke-miterlimit="10" stroke-linecap="round" stroke-linejoin="round"/>
<path d="M21.75 16.5C22.9926 16.5 24 15.4926 24 14.25C24 13.0074 22.9926 12 21.75 12C20.5074 12 19.5 13.0074 19.5 14.25C19.5 15.4926 20.5074 16.5 21.75 16.5Z" stroke="#292D32" stroke-width="2.25" stroke-linecap="round" stroke-linejoin="round"/>
</svg>
