<svg width="261" height="246" viewBox="0 0 261 246" fill="none" xmlns="http://www.w3.org/2000/svg">
<ellipse cx="164.66" cy="150.318" rx="68.8353" ry="68.2711" fill="#3B82F6"/>
<path d="M149.984 147.89C149.132 152.05 148.28 156.211 147.928 160.474L146.971 160.278C142.201 160.636 137.503 161.643 133.006 163.272C130.318 164.219 127.731 165.432 125.285 166.894C122.091 159.098 121.287 150.529 122.977 142.275C124.666 134.021 128.772 126.456 134.773 120.543C136.448 122.848 138.35 124.98 140.45 126.907C143.909 130.225 147.809 133.051 152.04 135.305L153.038 135.509C151.854 139.602 150.835 143.729 149.984 147.89ZM137.942 117.766C139.6 120.096 141.5 122.243 143.61 124.172C146.752 127.035 150.265 129.461 154.056 131.383C155.547 126.501 157.392 121.735 159.576 117.123C160.991 113.972 162.75 110.988 164.822 108.226C155.033 108.229 145.543 111.598 137.942 117.766ZM180.857 111.638C181.677 114.993 182.123 118.428 182.186 121.881C182.384 126.939 182.216 132.004 181.684 137.038C185.948 136.737 190.152 135.863 194.182 134.437C196.913 133.533 199.54 132.342 202.019 130.882C197.388 122.225 189.915 115.428 180.857 111.638ZM151.717 164.415C151.063 170.315 150.919 176.262 151.287 182.187C151.423 185.497 152.054 188.768 153.159 191.891L156.03 192.479L158.901 193.067C161.131 190.653 162.99 187.922 164.418 184.962C167.085 179.658 169.289 174.133 171.006 168.45C164.91 165.829 158.352 164.457 151.717 164.415ZM176.858 141.556C173.437 141.519 170.027 141.155 166.676 140.468C163.324 139.783 160.046 138.778 156.886 137.467C155.871 140.945 154.962 144.747 154.145 148.741C153.327 152.736 152.543 156.564 152.227 160.227C159.084 160.308 165.862 161.695 172.199 164.315C173.214 160.838 174.123 157.036 174.94 153.041C175.758 149.047 176.425 145.152 176.858 141.556ZM177.807 119.554C177.67 116.244 177.039 112.973 175.935 109.85L173.064 109.262L170.193 108.675C167.963 111.088 166.103 113.82 164.675 116.779C162.008 122.084 159.804 127.608 158.087 133.292C164.194 135.886 170.759 137.229 177.394 137.243C178.037 131.369 178.176 125.451 177.807 119.554ZM203.825 134.764C201.379 136.225 198.793 137.439 196.105 138.386C191.606 140.045 186.902 141.08 182.122 141.463L181.165 141.267C180.647 145.496 179.961 149.691 179.11 153.851C178.258 158.012 177.406 162.173 176.055 166.232L177.003 166.686C181.235 168.886 185.146 171.655 188.627 174.918C190.727 176.844 192.628 178.976 194.304 181.282C200.304 175.368 204.41 167.803 206.1 159.549C207.789 151.296 206.986 142.726 203.791 134.93L203.825 134.764ZM185.483 177.569C182.342 174.706 178.828 172.281 175.037 170.359C173.546 175.24 171.701 180.006 169.517 184.618C168.103 187.769 166.343 190.753 164.271 193.516C174.089 193.589 183.632 190.276 191.292 184.134C189.599 181.742 187.651 179.541 185.483 177.569ZM146.908 179.86C146.709 174.803 146.877 169.737 147.409 164.703C143.145 165.004 138.942 165.879 134.912 167.304C132.181 168.208 129.554 169.399 127.075 170.859C131.705 179.516 139.179 186.313 148.236 190.103C147.416 186.749 146.971 183.313 146.908 179.86Z" fill="black"/>
<path d="M155.593 204.281L154.223 210.972L152.809 210.682L153.939 205.158L151.071 204.571L151.31 203.405L155.593 204.281Z" fill="white"/>
<path d="M150.292 202.961L148.207 209.464L143.825 208.059L144.189 206.925L147.196 207.889L147.693 206.34L144.911 205.448L145.274 204.314L148.056 205.206L148.554 203.653L145.534 202.685L145.898 201.552L150.292 202.961Z" fill="white"/>
<path d="M142.653 206.35L142.169 207.438L137.044 205.158L137.528 204.07L139.438 204.92L141.73 199.768L143.034 200.348L140.742 205.5L142.653 206.35Z" fill="white"/>
<path d="M133.434 203.081L133.796 202.458C133.899 202.281 134.039 202.121 134.215 201.977C134.389 201.833 134.58 201.713 134.788 201.615C134.995 201.52 135.199 201.455 135.4 201.419L135.755 202.055C135.571 202.151 135.389 202.269 135.208 202.411C135.026 202.552 134.864 202.745 134.722 202.989L134.357 203.617L133.434 203.081Z" fill="white"/>
<path d="M128.712 197.51C128.574 197.742 128.542 197.978 128.616 198.218C128.691 198.458 128.868 198.681 129.147 198.887C129.336 199.026 129.516 199.118 129.686 199.16C129.855 199.205 130.009 199.206 130.147 199.164C130.284 199.121 130.396 199.041 130.483 198.923C130.559 198.827 130.602 198.726 130.611 198.62C130.619 198.512 130.602 198.402 130.561 198.289C130.519 198.177 130.459 198.063 130.383 197.946C130.305 197.831 130.216 197.715 130.116 197.6L129.709 197.118C129.509 196.887 129.341 196.654 129.207 196.416C129.072 196.179 128.98 195.941 128.93 195.702C128.879 195.464 128.879 195.226 128.929 194.989C128.977 194.752 129.085 194.518 129.252 194.287C129.502 193.952 129.803 193.724 130.155 193.602C130.504 193.481 130.887 193.47 131.306 193.569C131.722 193.668 132.153 193.882 132.601 194.212C133.044 194.539 133.381 194.892 133.61 195.271C133.837 195.648 133.945 196.038 133.932 196.441C133.917 196.844 133.768 197.246 133.485 197.648L132.361 196.819C132.484 196.626 132.545 196.433 132.543 196.241C132.538 196.049 132.479 195.864 132.368 195.685C132.254 195.507 132.096 195.344 131.896 195.196C131.699 195.051 131.507 194.954 131.32 194.904C131.131 194.853 130.959 194.849 130.803 194.892C130.647 194.935 130.521 195.022 130.423 195.155C130.332 195.278 130.292 195.409 130.303 195.547C130.313 195.684 130.366 195.833 130.462 195.995C130.556 196.156 130.686 196.334 130.851 196.53L131.338 197.122C131.719 197.576 131.955 198.022 132.046 198.46C132.138 198.897 132.033 199.319 131.732 199.723C131.488 200.058 131.185 200.283 130.823 200.4C130.459 200.515 130.068 200.527 129.65 200.434C129.233 200.342 128.823 200.148 128.422 199.852C128.014 199.551 127.71 199.219 127.508 198.855C127.305 198.49 127.21 198.121 127.224 197.747C127.237 197.373 127.362 197.02 127.598 196.688L128.712 197.51Z" fill="white"/>
<path d="M125.713 188.383L120.574 192.881L119.623 191.794L121.743 189.939L119.813 187.733L117.693 189.589L116.744 188.504L121.883 184.007L122.832 185.091L120.709 186.949L122.639 189.155L124.762 187.297L125.713 188.383Z" fill="white"/>
<path d="M121.219 183.004L122.106 184.272L115.159 186.255L114.092 184.731L118.337 178.887L119.224 180.154L115.889 184.577L115.919 184.62L121.219 183.004ZM119.075 184.622L116.979 181.628L117.903 180.982L119.998 183.976L119.075 184.622Z" fill="white"/>
<path d="M111.989 181.365L115.742 177.42L115.712 177.365L110.368 178.413L109.597 177.01L116.716 175.786L117.612 177.417L112.761 182.771L111.989 181.365Z" fill="white"/>
<path d="M115.657 173.712L109.351 176.333L107.585 172.084L108.684 171.627L109.896 174.543L111.399 173.918L110.278 171.221L111.377 170.764L112.498 173.461L114.004 172.835L112.786 169.907L113.886 169.45L115.657 173.712Z" fill="white"/>
<path d="M111.749 161.828L112.022 163.351L104.884 162.235L104.556 160.403L110.863 156.882L111.136 158.405L106.251 161.018L106.261 161.07L111.749 161.828ZM109.124 162.397L108.479 158.8L109.589 158.601L110.233 162.198L109.124 162.397Z" fill="white"/>
<path d="M106.392 145.214L106.334 146.673C106.144 146.692 105.974 146.74 105.824 146.816C105.672 146.893 105.542 146.993 105.432 147.118C105.323 147.243 105.237 147.388 105.175 147.555C105.113 147.719 105.078 147.899 105.07 148.095C105.056 148.448 105.132 148.759 105.297 149.028C105.46 149.297 105.705 149.51 106.032 149.668C106.358 149.825 106.757 149.913 107.23 149.932C107.717 149.951 108.128 149.895 108.465 149.764C108.801 149.63 109.059 149.436 109.239 149.18C109.418 148.925 109.514 148.625 109.528 148.281C109.535 148.087 109.517 147.908 109.472 147.741C109.428 147.573 109.359 147.422 109.266 147.289C109.172 147.156 109.055 147.045 108.916 146.955C108.777 146.863 108.617 146.796 108.436 146.756L108.501 145.297C108.812 145.347 109.111 145.453 109.396 145.616C109.679 145.776 109.93 145.987 110.148 146.249C110.365 146.509 110.533 146.816 110.653 147.17C110.77 147.522 110.82 147.917 110.803 148.354C110.779 148.963 110.62 149.502 110.325 149.971C110.031 150.437 109.617 150.799 109.085 151.056C108.552 151.311 107.914 151.424 107.172 151.395C106.428 151.365 105.801 151.2 105.29 150.9C104.779 150.6 104.396 150.204 104.142 149.713C103.885 149.223 103.769 148.678 103.793 148.078C103.808 147.682 103.878 147.318 104.002 146.985C104.127 146.649 104.301 146.355 104.525 146.101C104.746 145.847 105.013 145.644 105.326 145.492C105.639 145.337 105.994 145.245 106.392 145.214Z" fill="white"/>
<path d="M110.81 145.843L104.055 144.838L104.268 143.41L107.055 143.825L107.486 140.926L104.699 140.511L104.911 139.086L111.666 140.091L111.454 141.516L108.664 141.101L108.232 144L111.022 144.415L110.81 145.843Z" fill="white"/>
<path d="M112.045 138.634L111.654 140.13L105.644 136.12L106.116 134.32L113.318 133.772L112.926 135.269L107.396 135.589L107.383 135.641L112.045 138.634ZM109.424 138.047L110.35 134.512L111.44 134.797L110.515 138.333L109.424 138.047Z" fill="white"/>
<path d="M108.033 132.007L106.921 131.583L108.92 126.342L110.032 126.767L109.287 128.72L114.555 130.73L114.047 132.063L108.778 130.054L108.033 132.007Z" fill="white"/>
<path d="M118.622 120.356C118.474 120.581 118.285 120.751 118.053 120.864C117.819 120.977 117.573 121.028 117.314 121.018C117.056 121.005 116.815 120.925 116.59 120.778C116.363 120.629 116.194 120.439 116.082 120.209C115.969 119.975 115.919 119.729 115.932 119.472C115.942 119.213 116.021 118.971 116.169 118.746C116.318 118.519 116.508 118.35 116.741 118.24C116.972 118.126 117.217 118.075 117.475 118.087C117.732 118.097 117.974 118.176 118.201 118.325C118.426 118.472 118.594 118.663 118.707 118.896C118.821 119.128 118.872 119.373 118.862 119.632C118.851 119.888 118.771 120.13 118.622 120.356Z" fill="white"/>
<path d="M125.657 113.533L120.887 108.645L121.921 107.636L125.859 111.672L127.954 109.628L128.786 110.48L125.657 113.533Z" fill="white"/>
<path d="M129.519 109.862L125.307 104.487L128.929 101.648L129.663 102.585L127.178 104.533L128.181 105.814L130.48 104.012L131.215 104.949L128.916 106.751L129.921 108.034L132.417 106.078L133.152 107.015L129.519 109.862Z" fill="white"/>
<path d="M131.001 101.637L130.372 100.626L135.135 97.6641L135.764 98.6749L133.988 99.7791L136.966 104.567L135.754 105.321L132.776 100.533L131.001 101.637Z" fill="white"/>
<path d="M138.881 95.8415L139.193 96.4906C139.281 96.675 139.336 96.8806 139.356 97.1076C139.377 97.3317 139.37 97.5573 139.334 97.7844C139.296 98.0095 139.236 98.2149 139.152 98.4005L138.427 98.3385C138.451 98.1321 138.455 97.9144 138.439 97.6855C138.424 97.4556 138.356 97.2134 138.234 96.9589L137.919 96.3038L138.881 95.8415Z" fill="white"/>
<path d="M146.141 95.0596C146.027 94.8149 145.849 94.656 145.609 94.583C145.368 94.51 145.085 94.5312 144.758 94.6468C144.535 94.7253 144.359 94.8231 144.228 94.94C144.097 95.0549 144.009 95.1813 143.966 95.3192C143.925 95.4563 143.929 95.594 143.978 95.7324C144.014 95.8491 144.074 95.9412 144.157 96.0086C144.242 96.0753 144.342 96.1234 144.459 96.1529C144.575 96.1804 144.702 96.1953 144.842 96.1977C144.982 96.198 145.127 96.1891 145.279 96.1709L145.906 96.1047C146.209 96.0683 146.496 96.0611 146.768 96.0829C147.04 96.1047 147.289 96.1618 147.515 96.254C147.741 96.3463 147.938 96.4795 148.105 96.6536C148.275 96.8271 148.408 97.0475 148.505 97.3151C148.642 97.7098 148.663 98.087 148.566 98.4467C148.47 98.8034 148.264 99.1274 147.947 99.4186C147.632 99.7069 147.212 99.9437 146.688 100.129C146.168 100.313 145.688 100.393 145.246 100.37C144.806 100.346 144.423 100.216 144.096 99.9804C143.771 99.7416 143.522 99.3924 143.348 98.9329L144.665 98.4673C144.756 98.678 144.882 98.8364 145.042 98.9425C145.203 99.0458 145.389 99.1015 145.599 99.1096C145.811 99.115 146.034 99.0762 146.269 98.9932C146.5 98.9117 146.688 98.8074 146.834 98.6803C146.982 98.5525 147.082 98.4122 147.134 98.2594C147.186 98.1066 147.185 97.9526 147.13 97.7975C147.079 97.6529 146.993 97.5465 146.872 97.4784C146.754 97.4095 146.601 97.3694 146.413 97.358C146.227 97.3459 146.006 97.353 145.752 97.3794L144.988 97.4512C144.399 97.511 143.897 97.456 143.484 97.2863C143.07 97.1166 142.78 96.7934 142.614 96.3169C142.474 95.9278 142.458 95.5506 142.564 95.1851C142.673 94.819 142.883 94.489 143.194 94.1951C143.505 93.9012 143.895 93.6713 144.365 93.5054C144.843 93.3365 145.289 93.2708 145.703 93.3083C146.119 93.3451 146.478 93.474 146.78 93.695C147.082 93.9159 147.304 94.2171 147.446 94.5984L146.141 95.0596Z" fill="white"/>
<path d="M155.379 97.6984L154.54 90.9209L155.973 90.7437L156.319 93.54L159.228 93.1801L158.882 90.3838L160.312 90.2069L161.15 96.9844L159.721 97.1612L159.374 94.3616L156.465 94.7214L156.812 97.5211L155.379 97.6984Z" fill="white"/>
<path d="M162.353 96.9977L160.805 97.0205L163.062 90.1573L164.922 90.1299L167.377 96.9235L165.83 96.9463L164.042 91.7036L163.989 91.7044L162.353 96.9977ZM162.216 94.3151L165.87 94.2611L165.887 95.3881L162.233 95.442L162.216 94.3151Z" fill="white"/>
<path d="M168.889 90.2783L170.048 95.5983L170.111 95.6043L172.242 90.593L173.836 90.7425L170.854 97.3218L169.001 97.1479L167.292 90.1284L168.889 90.2783Z" fill="white"/>
<path d="M173.19 97.4493L174.559 90.759L179.068 91.6817L178.829 92.848L175.735 92.2147L175.409 93.8089L178.271 94.3947L178.032 95.5609L175.17 94.9752L174.843 96.5726L177.95 97.2085L177.711 98.3748L173.19 97.4493Z" fill="white"/>
<path d="M185.194 101.043L183.781 100.414L188.71 95.1326L190.41 95.8889L189.786 103.085L188.372 102.456L188.95 96.9474L188.902 96.9258L185.194 101.043ZM186.197 98.551L189.536 100.036L189.078 101.066L185.739 99.5808L186.197 98.551Z" fill="white"/>
<path d="M201.953 105.933L200.777 105.066C200.868 104.898 200.923 104.731 200.944 104.564C200.966 104.395 200.957 104.23 200.915 104.07C200.873 103.909 200.801 103.756 200.698 103.611C200.596 103.468 200.467 103.338 200.31 103.222C200.025 103.012 199.725 102.9 199.41 102.886C199.096 102.87 198.782 102.953 198.467 103.136C198.155 103.317 197.858 103.598 197.577 103.979C197.288 104.371 197.103 104.743 197.023 105.095C196.945 105.449 196.961 105.771 197.072 106.063C197.183 106.355 197.377 106.603 197.654 106.807C197.81 106.922 197.969 107.008 198.132 107.064C198.296 107.122 198.46 107.15 198.621 107.147C198.784 107.143 198.942 107.109 199.095 107.045C199.249 106.982 199.393 106.887 199.528 106.76L200.7 107.632C200.484 107.861 200.228 108.049 199.934 108.193C199.642 108.338 199.327 108.427 198.987 108.461C198.65 108.494 198.302 108.461 197.942 108.361C197.585 108.261 197.23 108.081 196.878 107.821C196.387 107.46 196.031 107.026 195.808 106.519C195.587 106.014 195.519 105.468 195.605 104.883C195.694 104.299 195.958 103.708 196.398 103.11C196.84 102.511 197.329 102.084 197.864 101.829C198.4 101.575 198.942 101.48 199.491 101.545C200.041 101.608 200.557 101.818 201.04 102.174C201.359 102.409 201.621 102.671 201.827 102.961C202.035 103.252 202.181 103.562 202.266 103.889C202.352 104.215 202.37 104.55 202.32 104.894C202.272 105.24 202.15 105.586 201.953 105.933Z" fill="white"/>
<path d="M198.952 109.236L203.575 104.209L204.638 105.187L202.73 107.261L204.888 109.245L206.795 107.171L207.855 108.146L203.233 113.173L202.172 112.198L204.082 110.121L201.924 108.137L200.015 110.214L198.952 109.236Z" fill="white"/>
<path d="M204.226 114.305L203.207 113.141L209.899 110.417L211.124 111.818L207.535 118.087L206.516 116.922L209.355 112.165L209.319 112.125L204.226 114.305ZM206.182 112.465L208.589 115.215L207.741 115.957L205.334 113.207L206.182 112.465Z" fill="white"/>
<path d="M211.962 114.703L212.937 114.021L216.153 118.616L215.177 119.299L213.979 117.586L209.359 120.818L208.541 119.649L213.16 116.416L211.962 114.703Z" fill="white"/>
<path d="M215.663 130.005C215.56 129.757 215.526 129.505 215.562 129.249C215.6 128.992 215.696 128.76 215.85 128.552C216.005 128.345 216.207 128.19 216.455 128.087C216.705 127.983 216.957 127.949 217.211 127.986C217.467 128.024 217.699 128.12 217.905 128.275C218.114 128.429 218.27 128.63 218.373 128.879C218.477 129.129 218.51 129.382 218.471 129.636C218.435 129.892 218.34 130.123 218.185 130.329C218.033 130.537 217.832 130.693 217.581 130.797C217.333 130.9 217.08 130.933 216.824 130.895C216.568 130.859 216.336 130.764 216.128 130.61C215.922 130.457 215.767 130.255 215.663 130.005Z" fill="white"/>
<path d="M217.362 139.657L224.084 138.453L224.339 139.874L218.789 140.869L219.305 143.751L218.133 143.96L217.362 139.657Z" fill="white"/>
<path d="M218.234 144.914L225.047 144.444L225.364 149.035L224.176 149.117L223.959 145.967L222.335 146.079L222.536 148.993L221.349 149.075L221.148 146.161L219.521 146.273L219.739 149.436L218.552 149.518L218.234 144.914Z" fill="white"/>
<path d="M224.21 150.756L225.399 150.803L225.178 156.408L223.989 156.361L224.071 154.272L218.437 154.049L218.493 152.623L224.128 152.846L224.21 150.756Z" fill="white"/>
<path d="M224.585 160.531L223.872 160.425C223.67 160.395 223.469 160.324 223.27 160.214C223.072 160.106 222.89 159.973 222.722 159.815C222.557 159.658 222.421 159.493 222.314 159.32L222.772 158.754C222.93 158.89 223.108 159.015 223.306 159.13C223.505 159.247 223.744 159.327 224.023 159.368L224.742 159.475L224.585 160.531Z" fill="white"/>
<path d="M221.157 166.979C221.424 167.021 221.655 166.964 221.85 166.806C222.046 166.648 222.187 166.401 222.275 166.066C222.335 165.838 222.353 165.637 222.329 165.463C222.308 165.289 222.253 165.146 222.163 165.033C222.072 164.922 221.956 164.848 221.814 164.811C221.697 164.776 221.587 164.773 221.485 164.804C221.382 164.837 221.286 164.893 221.196 164.973C221.108 165.053 221.024 165.151 220.944 165.265C220.865 165.38 220.791 165.506 220.721 165.641L220.424 166.198C220.284 166.469 220.129 166.711 219.958 166.924C219.787 167.137 219.6 167.311 219.397 167.446C219.194 167.581 218.973 167.669 218.735 167.71C218.496 167.753 218.239 167.74 217.963 167.67C217.56 167.562 217.236 167.367 216.993 167.085C216.751 166.806 216.599 166.453 216.535 166.028C216.474 165.605 216.513 165.125 216.654 164.587C216.794 164.054 216.997 163.611 217.264 163.258C217.531 162.907 217.853 162.663 218.231 162.525C218.611 162.39 219.04 162.38 219.519 162.493L219.165 163.845C218.939 163.802 218.738 163.817 218.56 163.89C218.384 163.966 218.234 164.088 218.109 164.258C217.985 164.43 217.892 164.637 217.829 164.877C217.767 165.114 217.748 165.328 217.771 165.521C217.794 165.715 217.854 165.877 217.951 166.005C218.048 166.134 218.176 166.22 218.336 166.261C218.484 166.3 218.62 166.289 218.744 166.227C218.868 166.167 218.987 166.063 219.102 165.914C219.216 165.767 219.334 165.581 219.455 165.355L219.824 164.683C220.106 164.161 220.433 163.777 220.805 163.53C221.178 163.283 221.608 163.224 222.096 163.354C222.496 163.457 222.818 163.655 223.06 163.948C223.302 164.243 223.458 164.602 223.526 165.025C223.595 165.447 223.566 165.899 223.44 166.381C223.312 166.871 223.116 167.277 222.852 167.599C222.588 167.923 222.28 168.148 221.928 168.274C221.575 168.4 221.202 168.414 220.806 168.318L221.157 166.979Z" fill="white"/>
<path d="M213.789 173.144L219.87 176.253L219.212 177.539L216.703 176.256L215.369 178.865L217.878 180.148L217.222 181.431L211.142 178.321L211.797 177.039L214.309 178.323L215.644 175.714L213.132 174.429L213.789 173.144Z" fill="white"/>
<path d="M210.456 179.31L211.305 178.016L215.719 183.735L214.698 185.291L207.697 183.51L208.547 182.217L213.89 183.679L213.919 183.634L210.456 179.31ZM212.753 180.702L210.747 183.757L209.804 183.138L211.81 180.084L212.753 180.702Z" fill="white"/>
<path d="M212.349 188.49L207.296 186.463L207.255 186.512L210.207 191.089L209.189 192.324L205.417 186.163L206.6 184.728L213.369 187.252L212.349 188.49Z" fill="white"/>
<path d="M203.882 187.916L208.651 192.804L205.358 196.018L204.526 195.166L206.786 192.96L205.65 191.796L203.559 193.835L202.728 192.983L204.819 190.944L203.68 189.776L201.41 191.991L200.579 191.139L203.882 187.916Z" fill="white"/>
<path d="M194.289 195.945L195.603 195.128L197.207 202.172L195.628 203.155L190.022 198.599L191.336 197.782L195.571 201.352L195.616 201.324L194.289 195.945ZM195.789 198.173L192.685 200.103L192.09 199.146L195.193 197.216L195.789 198.173Z" fill="white"/>
<path d="M180.837 207.072L182.214 206.585C182.302 206.754 182.41 206.894 182.536 207.005C182.663 207.118 182.805 207.202 182.961 207.258C183.118 207.313 183.285 207.339 183.463 207.335C183.638 207.332 183.818 207.298 184.003 207.233C184.336 207.115 184.597 206.93 184.786 206.677C184.976 206.426 185.083 206.119 185.108 205.757C185.134 205.396 185.068 204.993 184.91 204.546C184.748 204.087 184.543 203.726 184.297 203.461C184.048 203.198 183.772 203.03 183.468 202.959C183.165 202.887 182.85 202.908 182.526 203.023C182.343 203.087 182.183 203.171 182.045 203.274C181.905 203.378 181.79 203.497 181.701 203.633C181.613 203.77 181.553 203.92 181.521 204.082C181.486 204.245 181.484 204.418 181.513 204.601L180.134 205.081C180.065 204.773 180.053 204.457 180.099 204.132C180.143 203.81 180.246 203.499 180.409 203.198C180.57 202.901 180.793 202.631 181.078 202.389C181.361 202.15 181.709 201.957 182.122 201.811C182.696 201.608 183.256 201.557 183.8 201.656C184.343 201.757 184.832 202.007 185.268 202.407C185.702 202.808 186.043 203.358 186.29 204.058C186.538 204.76 186.617 205.405 186.527 205.99C186.437 206.576 186.212 207.078 185.85 207.496C185.489 207.916 185.026 208.226 184.46 208.426C184.087 208.558 183.723 208.628 183.367 208.635C183.009 208.644 182.671 208.591 182.353 208.478C182.035 208.366 181.747 208.193 181.49 207.958C181.231 207.725 181.013 207.429 180.837 207.072Z" fill="white"/>
<path d="M179.787 202.734L181.354 209.381L179.948 209.712L179.302 206.97L176.449 207.642L177.096 210.385L175.693 210.715L174.127 204.068L175.529 203.738L176.176 206.483L179.029 205.811L178.382 203.065L179.787 202.734Z" fill="white"/>
<path d="M172.632 204.255L174.167 204.065L172.666 211.132L170.82 211.36L167.645 204.872L169.18 204.682L171.525 209.7L171.578 209.694L172.632 204.255ZM173.057 206.907L169.43 207.355L169.292 206.237L172.919 205.788L173.057 206.907Z" fill="white"/>
<path d="M167.961 210.434L167.978 211.625L162.37 211.707L162.353 210.517L164.443 210.486L164.36 204.848L165.787 204.827L165.87 210.465L167.961 210.434Z" fill="white"/>
<path d="M33.026 41.8765C32.9536 42.5626 32.8939 43.6889 32.9433 45.0885C32.9927 46.4881 33.1727 48.1591 33.5076 49.9208C33.8406 51.6796 34.3335 53.5299 34.8889 55.2975C35.4329 57.0685 36.0858 58.7384 36.7026 60.1772C39.581 66.8239 43.9099 72.8289 49.6419 77.2645C55.3537 81.6765 62.4925 84.5074 70.0556 84.9943C71.2361 85.0875 72.8419 85.067 74.1465 85.0819C74.4718 85.0964 74.7808 85.093 75.0578 85.1026C75.3349 85.1122 75.583 85.1327 75.7942 85.1654C76.2084 85.2321 76.462 85.356 76.4541 85.5547C76.4364 85.9698 75.7304 86.3808 74.4539 86.7342C73.179 87.029 71.3235 87.2645 69.1384 87.085C63.8373 86.71 58.7699 85.192 54.2472 82.8637C49.7102 80.5409 45.7378 77.3699 42.4083 73.7063C37.5213 68.3352 34.1433 61.7649 32.1258 54.7978C31.1108 51.3184 30.4091 47.6721 30.451 43.8822C30.4773 41.9919 30.7126 40.0699 31.198 38.1712C31.6909 36.284 32.4797 34.3938 33.5807 32.6751C34.5625 31.1302 35.7942 29.724 37.2108 28.5079C38.6293 27.2946 40.2496 26.2767 42.0202 25.5871C43.7851 24.8889 45.7082 24.592 47.5671 24.7082C49.4322 24.8202 51.2179 25.4377 52.7118 26.3971C53.4544 26.8838 54.1308 27.4474 54.7377 28.0695C55.3414 28.6936 55.8644 29.3796 56.3304 30.0952C57.2486 31.5396 57.8968 33.1345 58.2972 34.791C59.0866 38.1073 58.9366 41.7344 57.5848 45.1343C57.2542 45.9342 56.8819 46.6917 56.4606 47.4365C56.0355 48.1755 55.5657 48.8949 55.0494 49.5916C54.5273 50.2798 53.9618 50.9433 53.3522 51.5743C52.7338 52.1988 52.0706 52.7831 51.3658 53.3251C49.9498 54.3926 48.3289 55.2669 46.6197 55.784C44.9157 56.3224 43.1411 56.5372 41.432 56.4904C37.9918 56.3907 34.8413 55.3414 31.9885 53.9792C30.5604 53.289 29.1898 52.5153 27.8967 51.6613L25.9818 50.3599L25.028 49.7046L24.1193 48.9948C15.6672 42.5409 9.25984 33.8735 5.13995 24.2352C4.14596 21.9767 3.00032 19.2179 2.24341 16.5962C2.06397 16.0608 1.92173 15.4185 1.75419 14.7312C1.59168 14.0446 1.41514 13.3098 1.24049 12.5778C0.947653 11.0969 0.718183 9.60276 0.552557 8.49021C0.469806 7.51611 0.390668 6.50669 0.244634 5.56636C0.205147 5.29621 0.168225 5.03671 0.132618 4.7928C0.108303 4.54551 0.0946989 4.30756 0.0773986 4.08443C0.0490594 3.634 0.0316206 3.23397 0.0231772 2.88147C0.00628883 2.17647 0.0316525 1.65747 0.100521 1.31951C0.240154 0.64645 0.556906 0.695504 1.07043 1.36719C1.29718 1.66122 1.54792 1.26428 1.75019 2.28253C1.76042 2.32513 1.77587 2.40955 1.78231 2.44643C2.46891 5.50584 2.717 8.67934 3.33868 11.8312C6.73408 27.1532 15.9475 40.836 29.1011 49.4459C30.0876 50.137 31.122 50.7305 32.1809 51.2995C33.2347 51.8678 34.3216 52.377 35.4376 52.8011C36.5542 53.233 37.6963 53.5944 38.8674 53.8296C40.0366 54.062 41.2274 54.2182 42.4206 54.1877C43.6125 54.1621 44.7968 53.9893 45.9498 53.6603L46.8001 53.3716C47.0848 53.2772 47.3531 53.1445 47.6296 53.0309C48.1679 52.7682 48.7049 52.49 49.2071 52.1525C50.2268 51.5004 51.1609 50.6992 51.9879 49.8044C52.8219 48.9134 53.5568 47.9275 54.1727 46.8847C54.5182 46.3179 54.8114 45.7199 55.0852 45.1265C55.3326 44.5343 55.5661 43.9347 55.7305 43.3193C56.0856 42.0875 56.2742 40.8221 56.349 39.5418L56.346 39.5849C56.3848 38.2502 56.2358 36.9249 55.9244 35.6539C55.6243 34.3796 55.1361 33.1683 54.5201 32.0501C53.9296 30.9974 53.1736 30.0421 52.2828 29.2504C51.38 28.4748 50.3441 27.8453 49.1902 27.4999C48.6197 27.3065 48.0145 27.2102 47.4081 27.1393C46.7936 27.0903 46.1694 27.1013 45.546 27.1611C44.2968 27.2906 43.0467 27.6635 41.8678 28.232C39.5013 29.3625 37.4621 31.2512 35.976 33.3819C35.2301 34.4533 34.6303 35.5883 34.1794 36.7643C33.7249 37.9551 33.3936 39.1752 33.1885 40.4021C33.1485 40.5933 33.1351 40.8245 33.1117 41.0746C33.0694 41.3167 33.043 41.5895 33.026 41.8765Z" fill="#2B2B2B"/>
<path d="M75.3478 88.7463C75.1595 88.9248 74.4567 89.5107 73.9942 89.8671C72.9377 90.7083 71.7286 91.408 70.4078 91.6879C70.2014 91.7303 69.8697 91.8558 69.6391 91.1074C69.3977 90.3292 69.4362 89.8097 69.7235 89.726C70.4197 89.5109 71.1845 89.3242 71.7386 88.8C72.5349 88.0492 73.4234 87.4511 74.1271 86.6424C74.2465 86.5096 74.362 86.3712 74.4745 86.2348L74.5483 86.1488L74.5645 86.1257L74.5957 86.0844C74.6376 86.0319 74.6862 85.9625 74.6577 85.8991C74.6362 85.8599 74.5884 85.8423 74.5431 85.8353C74.523 85.8321 74.4966 85.8332 74.4753 85.835L74.4426 85.8402C74.4345 85.8415 74.4364 85.8444 74.4263 85.8428L73.6511 85.6535C73.1903 85.5437 72.7338 85.4269 72.2966 85.2643C71.5436 84.9862 70.8771 84.5189 70.1534 84.1761C69.9828 84.0959 69.7036 84.1577 69.5149 84.0772C69.3569 84.0092 69.0902 83.9064 68.959 83.7835C68.9016 83.731 68.8467 83.6687 68.7676 83.6718C68.3984 83.6864 68.4423 83.3856 68.9399 82.5655C69.0503 82.3852 69.1358 82.1267 69.271 82.0246C69.2773 82.0204 69.2879 82.0093 69.2942 82.0051C69.7614 81.5674 69.8834 81.8939 70.1243 81.9645C71.3072 82.3195 72.4633 82.7292 73.6325 83.118L74.7012 83.4911C74.8817 83.5524 75.0604 83.6108 75.2433 83.6623L75.6062 83.7672C75.7741 83.8162 75.9451 83.8632 76.1105 83.9222C76.4697 84.0419 76.8728 84.1736 77.0168 84.4855L77.013 84.4798C77.1385 84.6146 77.246 84.7697 77.3252 84.9434C77.3957 85.1107 77.4442 85.2926 77.4419 85.4793C77.444 85.836 77.3458 86.1976 77.1595 86.5558C77.0755 86.735 76.9381 86.9086 76.8089 87.0808C76.6809 87.2481 76.5416 87.4393 76.4236 87.5877C76.1037 87.9688 75.778 88.3208 75.4182 88.6214C75.3957 88.6487 75.3859 88.7087 75.3478 88.7463Z" fill="#2B2B2B"/>
</svg>
