<svg width="239" height="58" viewBox="0 0 239 58" fill="none" xmlns="http://www.w3.org/2000/svg">
<path d="M5.70476 39.7185L1.2137 22.227C0.792397 20.5862 0.581747 19.7657 0.510719 18.9385C0.430023 17.9987 0.482712 17.0521 0.66722 16.1271C0.829622 15.3128 1.13003 14.5208 1.73084 12.9369C3.00066 9.58918 3.63557 7.91533 4.68098 6.64515C5.86654 5.2047 7.4314 4.12462 9.19867 3.52699C10.757 3 12.5473 3 16.1277 3H217C226.428 3 231.142 3 234.071 5.92893C237 8.85786 237 13.5719 237 23V39.7289C237 41.6297 237 42.5801 236.825 43.5044C236.77 43.7941 236.702 44.0811 236.621 44.3648C236.365 45.2699 235.94 46.12 235.09 47.8201L235.09 47.8202C232.883 52.2344 231.779 54.4415 229.943 55.8457C229.375 56.2797 228.762 56.6517 228.115 56.9551C226.022 57.9369 223.555 57.8977 218.62 57.8194L24.759 54.7422C17.42 54.6257 13.7504 54.5675 11.0966 52.475C8.44283 50.3826 7.53014 46.8279 5.70476 39.7185Z" fill="#D9F99D"/>
<path d="M7.70476 36.7185L3.2137 19.227C2.7924 17.5862 2.58175 16.7657 2.51072 15.9385C2.43002 14.9987 2.48271 14.0521 2.66722 13.1271C2.82962 12.3128 3.13003 11.5208 3.73084 9.93688C5.00066 6.58918 5.63557 4.91533 6.68098 3.64515C7.86654 2.2047 9.4314 1.12462 11.1987 0.526987C12.757 0 14.5473 0 18.1277 0H219C228.428 0 233.142 0 236.071 2.92893C239 5.85786 239 10.5719 239 20V36.7289C239 38.6297 239 39.5801 238.825 40.5044C238.77 40.7941 238.702 41.0811 238.621 41.3648C238.365 42.2699 237.94 43.12 237.09 44.8201L237.09 44.8202C234.883 49.2344 233.779 51.4415 231.943 52.8457C231.375 53.2797 230.762 53.6517 230.115 53.9551C228.022 54.9369 225.555 54.8977 220.62 54.8194L26.759 51.7422C19.42 51.6257 15.7504 51.5675 13.0966 49.475C10.4428 47.3826 9.53014 43.8279 7.70476 36.7185Z" fill="#3B82F6"/>
</svg>
